<mxfile host="app.diagrams.net" modified="2023-05-16T14:19:12.887Z" agent="Mozilla/5.0 (Windows NT 10.0; Win64; x64) AppleWebKit/537.36 (KHTML, like Gecko) Chrome/113.0.0.0 Safari/537.36" etag="_OnYx6GHpyQgX7j_BER1" version="21.2.9" type="device" pages="5">
  <diagram name="LS1" id="UMakz4pqsUGPOCenL5N0">
    <mxGraphModel dx="1434" dy="796" grid="1" gridSize="10" guides="1" tooltips="1" connect="1" arrows="1" fold="1" page="1" pageScale="1" pageWidth="1169" pageHeight="827" math="0" shadow="0">
      <root>
        <mxCell id="0" />
        <mxCell id="1" parent="0" />
        <mxCell id="q--Eu4FppKfhhb84JleK-264" value="&lt;font style=&quot;font-size: 10px&quot;&gt;=1&lt;/font&gt;" style="rounded=0;whiteSpace=wrap;html=1;fontSize=10;" parent="1" vertex="1">
          <mxGeometry x="159.75" y="80" width="39" height="50" as="geometry" />
        </mxCell>
        <mxCell id="q--Eu4FppKfhhb84JleK-273" style="edgeStyle=orthogonalEdgeStyle;rounded=0;orthogonalLoop=1;jettySize=auto;html=1;exitX=1;exitY=0.5;exitDx=0;exitDy=0;entryX=0;entryY=0.25;entryDx=0;entryDy=0;endArrow=none;endFill=0;strokeColor=default;" parent="1" source="q--Eu4FppKfhhb84JleK-265" target="q--Eu4FppKfhhb84JleK-271" edge="1">
          <mxGeometry relative="1" as="geometry" />
        </mxCell>
        <mxCell id="q--Eu4FppKfhhb84JleK-265" value="" style="ellipse;whiteSpace=wrap;html=1;aspect=fixed;fontSize=12;fontColor=#000000;" parent="1" vertex="1">
          <mxGeometry x="195.75" y="102" width="5.5" height="5.5" as="geometry" />
        </mxCell>
        <mxCell id="q--Eu4FppKfhhb84JleK-266" value="" style="endArrow=none;html=1;rounded=0;entryX=0;entryY=0.125;entryDx=0;entryDy=0;entryPerimeter=0;" parent="1" edge="1">
          <mxGeometry x="-1" y="15" width="50" height="50" relative="1" as="geometry">
            <mxPoint x="119.75" y="91.91999999999996" as="sourcePoint" />
            <mxPoint x="159.75" y="91.91999999999996" as="targetPoint" />
            <mxPoint x="-10" y="3" as="offset" />
          </mxGeometry>
        </mxCell>
        <mxCell id="q--Eu4FppKfhhb84JleK-267" value="RgI[0]" style="text;html=1;align=center;verticalAlign=middle;resizable=0;points=[];autosize=1;strokeColor=none;fillColor=none;fontSize=11;fontFamily=Helvetica;fontColor=default;spacing=0;" parent="1" vertex="1">
          <mxGeometry x="89.75" y="70" width="50" height="20" as="geometry" />
        </mxCell>
        <mxCell id="q--Eu4FppKfhhb84JleK-268" value="" style="endArrow=none;html=1;rounded=0;entryX=0;entryY=0.125;entryDx=0;entryDy=0;entryPerimeter=0;" parent="1" edge="1">
          <mxGeometry x="-1" y="15" width="50" height="50" relative="1" as="geometry">
            <mxPoint x="119.75" y="119.78999999999996" as="sourcePoint" />
            <mxPoint x="159.75" y="119.78999999999996" as="targetPoint" />
            <mxPoint x="-10" y="3" as="offset" />
          </mxGeometry>
        </mxCell>
        <mxCell id="q--Eu4FppKfhhb84JleK-269" value="AZU[0][0]" style="text;html=1;align=center;verticalAlign=middle;resizable=0;points=[];autosize=1;strokeColor=none;fillColor=none;fontSize=11;fontFamily=Helvetica;fontColor=default;spacing=0;" parent="1" vertex="1">
          <mxGeometry x="79.75" y="97.87" width="70" height="20" as="geometry" />
        </mxCell>
        <mxCell id="q--Eu4FppKfhhb84JleK-304" style="edgeStyle=orthogonalEdgeStyle;rounded=0;orthogonalLoop=1;jettySize=auto;html=1;exitX=1;exitY=0.5;exitDx=0;exitDy=0;entryX=0;entryY=0.25;entryDx=0;entryDy=0;endArrow=none;endFill=0;" parent="1" source="q--Eu4FppKfhhb84JleK-271" target="q--Eu4FppKfhhb84JleK-279" edge="1">
          <mxGeometry relative="1" as="geometry">
            <Array as="points">
              <mxPoint x="300" y="165" />
              <mxPoint x="300" y="257" />
            </Array>
          </mxGeometry>
        </mxCell>
        <mxCell id="q--Eu4FppKfhhb84JleK-271" value="&lt;font style=&quot;font-size: 10px&quot;&gt;1&lt;/font&gt;" style="rounded=0;whiteSpace=wrap;html=1;fontSize=10;" parent="1" vertex="1">
          <mxGeometry x="241" y="140" width="39" height="50" as="geometry" />
        </mxCell>
        <mxCell id="q--Eu4FppKfhhb84JleK-274" value="RgM[0]" style="text;html=1;align=center;verticalAlign=middle;resizable=0;points=[];autosize=1;strokeColor=none;fillColor=none;fontSize=11;fontFamily=Helvetica;fontColor=default;spacing=0;" parent="1" vertex="1">
          <mxGeometry x="89.75" y="155" width="50" height="20" as="geometry" />
        </mxCell>
        <mxCell id="q--Eu4FppKfhhb84JleK-277" value="" style="ellipse;whiteSpace=wrap;html=1;aspect=fixed;fontSize=12;fontColor=#000000;" parent="1" vertex="1">
          <mxGeometry x="238.5" y="176" width="5.5" height="5.5" as="geometry" />
        </mxCell>
        <mxCell id="q--Eu4FppKfhhb84JleK-278" value="" style="endArrow=none;html=1;rounded=0;entryX=0;entryY=0.5;entryDx=0;entryDy=0;" parent="1" target="q--Eu4FppKfhhb84JleK-277" edge="1">
          <mxGeometry width="50" height="50" relative="1" as="geometry">
            <mxPoint x="120" y="179" as="sourcePoint" />
            <mxPoint x="195.75" y="153.75" as="targetPoint" />
          </mxGeometry>
        </mxCell>
        <mxCell id="q--Eu4FppKfhhb84JleK-279" value="&lt;font style=&quot;font-size: 10px&quot;&gt;&amp;amp;&lt;/font&gt;" style="rounded=0;whiteSpace=wrap;html=1;fontSize=10;" parent="1" vertex="1">
          <mxGeometry x="380" y="238.59" width="39" height="83.56" as="geometry" />
        </mxCell>
        <mxCell id="q--Eu4FppKfhhb84JleK-283" value="&lt;font style=&quot;font-size: 10px&quot;&gt;=1&lt;/font&gt;" style="rounded=0;whiteSpace=wrap;html=1;fontSize=10;" parent="1" vertex="1">
          <mxGeometry x="159.75" y="252.5" width="39" height="50" as="geometry" />
        </mxCell>
        <mxCell id="q--Eu4FppKfhhb84JleK-284" style="edgeStyle=orthogonalEdgeStyle;rounded=0;orthogonalLoop=1;jettySize=auto;html=1;exitX=1;exitY=0.5;exitDx=0;exitDy=0;entryX=0;entryY=0.25;entryDx=0;entryDy=0;endArrow=none;endFill=0;strokeColor=default;" parent="1" source="q--Eu4FppKfhhb84JleK-285" target="q--Eu4FppKfhhb84JleK-290" edge="1">
          <mxGeometry relative="1" as="geometry" />
        </mxCell>
        <mxCell id="q--Eu4FppKfhhb84JleK-285" value="" style="ellipse;whiteSpace=wrap;html=1;aspect=fixed;fontSize=12;fontColor=#000000;" parent="1" vertex="1">
          <mxGeometry x="195.75" y="274.5" width="5.5" height="5.5" as="geometry" />
        </mxCell>
        <mxCell id="q--Eu4FppKfhhb84JleK-286" value="" style="endArrow=none;html=1;rounded=0;entryX=0;entryY=0.125;entryDx=0;entryDy=0;entryPerimeter=0;" parent="1" edge="1">
          <mxGeometry x="-1" y="15" width="50" height="50" relative="1" as="geometry">
            <mxPoint x="119.75" y="264.41999999999996" as="sourcePoint" />
            <mxPoint x="159.75" y="264.41999999999996" as="targetPoint" />
            <mxPoint x="-10" y="3" as="offset" />
          </mxGeometry>
        </mxCell>
        <mxCell id="q--Eu4FppKfhhb84JleK-287" value="RgI[15]" style="text;html=1;align=center;verticalAlign=middle;resizable=0;points=[];autosize=1;strokeColor=none;fillColor=none;fontSize=11;fontFamily=Helvetica;fontColor=default;spacing=0;" parent="1" vertex="1">
          <mxGeometry x="89.75" y="242.5" width="50" height="20" as="geometry" />
        </mxCell>
        <mxCell id="q--Eu4FppKfhhb84JleK-288" value="" style="endArrow=none;html=1;rounded=0;entryX=0;entryY=0.125;entryDx=0;entryDy=0;entryPerimeter=0;" parent="1" edge="1">
          <mxGeometry x="-1" y="15" width="50" height="50" relative="1" as="geometry">
            <mxPoint x="119.75" y="292.28999999999996" as="sourcePoint" />
            <mxPoint x="159.75" y="292.28999999999996" as="targetPoint" />
            <mxPoint x="-10" y="3" as="offset" />
          </mxGeometry>
        </mxCell>
        <mxCell id="q--Eu4FppKfhhb84JleK-289" value="AZU[0][15]" style="text;html=1;align=center;verticalAlign=middle;resizable=0;points=[];autosize=1;strokeColor=none;fillColor=none;fontSize=11;fontFamily=Helvetica;fontColor=default;spacing=0;" parent="1" vertex="1">
          <mxGeometry x="79.75" y="270.37" width="70" height="20" as="geometry" />
        </mxCell>
        <mxCell id="q--Eu4FppKfhhb84JleK-305" style="edgeStyle=orthogonalEdgeStyle;rounded=0;orthogonalLoop=1;jettySize=auto;html=1;exitX=1;exitY=0.5;exitDx=0;exitDy=0;entryX=0.006;entryY=0.63;entryDx=0;entryDy=0;endArrow=none;endFill=0;entryPerimeter=0;" parent="1" source="q--Eu4FppKfhhb84JleK-290" target="q--Eu4FppKfhhb84JleK-279" edge="1">
          <mxGeometry relative="1" as="geometry">
            <Array as="points">
              <mxPoint x="300" y="338" />
              <mxPoint x="300" y="289" />
            </Array>
          </mxGeometry>
        </mxCell>
        <mxCell id="q--Eu4FppKfhhb84JleK-290" value="&lt;font style=&quot;font-size: 10px&quot;&gt;1&lt;/font&gt;" style="rounded=0;whiteSpace=wrap;html=1;fontSize=10;" parent="1" vertex="1">
          <mxGeometry x="241" y="312.5" width="39" height="50" as="geometry" />
        </mxCell>
        <mxCell id="q--Eu4FppKfhhb84JleK-291" value="RgM[15]" style="text;html=1;align=center;verticalAlign=middle;resizable=0;points=[];autosize=1;strokeColor=none;fillColor=none;fontSize=11;fontFamily=Helvetica;fontColor=default;spacing=0;" parent="1" vertex="1">
          <mxGeometry x="84.75" y="327.5" width="60" height="20" as="geometry" />
        </mxCell>
        <mxCell id="q--Eu4FppKfhhb84JleK-292" value="" style="ellipse;whiteSpace=wrap;html=1;aspect=fixed;fontSize=12;fontColor=#000000;" parent="1" vertex="1">
          <mxGeometry x="238.5" y="348.5" width="5.5" height="5.5" as="geometry" />
        </mxCell>
        <mxCell id="q--Eu4FppKfhhb84JleK-293" value="" style="endArrow=none;html=1;rounded=0;entryX=0;entryY=0.5;entryDx=0;entryDy=0;" parent="1" target="q--Eu4FppKfhhb84JleK-292" edge="1">
          <mxGeometry width="50" height="50" relative="1" as="geometry">
            <mxPoint x="120" y="351.5" as="sourcePoint" />
            <mxPoint x="195.75" y="326.25" as="targetPoint" />
          </mxGeometry>
        </mxCell>
        <mxCell id="q--Eu4FppKfhhb84JleK-294" value="" style="shape=waypoint;sketch=0;size=6;pointerEvents=1;points=[];fillColor=none;resizable=0;rotatable=0;perimeter=centerPerimeter;snapToPoint=1;strokeWidth=0;" parent="1" vertex="1">
          <mxGeometry x="129.75" y="210" width="20" height="20" as="geometry" />
        </mxCell>
        <mxCell id="q--Eu4FppKfhhb84JleK-295" value="" style="shape=waypoint;sketch=0;size=6;pointerEvents=1;points=[];fillColor=none;resizable=0;rotatable=0;perimeter=centerPerimeter;snapToPoint=1;strokeWidth=0;" parent="1" vertex="1">
          <mxGeometry x="149.75" y="210" width="20" height="20" as="geometry" />
        </mxCell>
        <mxCell id="q--Eu4FppKfhhb84JleK-296" value="" style="shape=waypoint;sketch=0;size=6;pointerEvents=1;points=[];fillColor=none;resizable=0;rotatable=0;perimeter=centerPerimeter;snapToPoint=1;strokeWidth=0;" parent="1" vertex="1">
          <mxGeometry x="169.75" y="210" width="20" height="20" as="geometry" />
        </mxCell>
        <mxCell id="q--Eu4FppKfhhb84JleK-301" value="" style="shape=waypoint;sketch=0;size=6;pointerEvents=1;points=[];fillColor=none;resizable=0;rotatable=0;perimeter=centerPerimeter;snapToPoint=1;strokeWidth=0;" parent="1" vertex="1">
          <mxGeometry x="275" y="262.5" width="20" height="20" as="geometry" />
        </mxCell>
        <mxCell id="q--Eu4FppKfhhb84JleK-302" value="" style="shape=waypoint;sketch=0;size=6;pointerEvents=1;points=[];fillColor=none;resizable=0;rotatable=0;perimeter=centerPerimeter;snapToPoint=1;strokeWidth=0;" parent="1" vertex="1">
          <mxGeometry x="295" y="262.5" width="20" height="20" as="geometry" />
        </mxCell>
        <mxCell id="q--Eu4FppKfhhb84JleK-303" value="" style="shape=waypoint;sketch=0;size=6;pointerEvents=1;points=[];fillColor=none;resizable=0;rotatable=0;perimeter=centerPerimeter;snapToPoint=1;strokeWidth=0;" parent="1" vertex="1">
          <mxGeometry x="315" y="262.5" width="20" height="20" as="geometry" />
        </mxCell>
        <mxCell id="q--Eu4FppKfhhb84JleK-306" value="" style="endArrow=none;html=1;rounded=0;exitX=1;exitY=0.5;exitDx=0;exitDy=0;" parent="1" source="q--Eu4FppKfhhb84JleK-279" edge="1">
          <mxGeometry width="50" height="50" relative="1" as="geometry">
            <mxPoint x="477" y="312.15" as="sourcePoint" />
            <mxPoint x="467" y="280.15" as="targetPoint" />
          </mxGeometry>
        </mxCell>
        <mxCell id="n1XtSdYpMPuIE56CvHIT-1" value="" style="endArrow=none;html=1;rounded=0;entryX=0.008;entryY=0.851;entryDx=0;entryDy=0;entryPerimeter=0;" parent="1" target="q--Eu4FppKfhhb84JleK-279" edge="1">
          <mxGeometry width="50" height="50" relative="1" as="geometry">
            <mxPoint x="330" y="310" as="sourcePoint" />
            <mxPoint x="370" y="360" as="targetPoint" />
          </mxGeometry>
        </mxCell>
        <mxCell id="n1XtSdYpMPuIE56CvHIT-2" value="di" style="text;html=1;align=center;verticalAlign=middle;resizable=0;points=[];autosize=1;strokeColor=none;fillColor=none;fontSize=11;fontFamily=Helvetica;fontColor=default;spacing=0;" parent="1" vertex="1">
          <mxGeometry x="315" y="307.5" width="30" height="20" as="geometry" />
        </mxCell>
      </root>
    </mxGraphModel>
  </diagram>
  <diagram id="CFpyVh-X-XHgckj6frw3" name="LS2 WR">
    <mxGraphModel dx="1434" dy="796" grid="1" gridSize="10" guides="1" tooltips="1" connect="1" arrows="1" fold="1" page="1" pageScale="1" pageWidth="1169" pageHeight="827" math="0" shadow="0">
      <root>
        <mxCell id="0" />
        <mxCell id="1" parent="0" />
        <mxCell id="4pEO-FSnWxKGjlkDkR4Z-34" value="RGSH[0] v d0" style="text;html=1;align=center;verticalAlign=middle;resizable=0;points=[];autosize=1;strokeColor=none;fillColor=none;fontSize=11;fontFamily=Helvetica;fontColor=default;spacing=0;" parent="1" vertex="1">
          <mxGeometry x="44.75" y="620" width="90" height="20" as="geometry" />
        </mxCell>
        <mxCell id="4pEO-FSnWxKGjlkDkR4Z-42" value="&lt;font style=&quot;font-size: 10px&quot;&gt;&amp;amp;&lt;/font&gt;" style="rounded=0;whiteSpace=wrap;html=1;fontSize=10;" parent="1" vertex="1">
          <mxGeometry x="280" y="40" width="39" height="160" as="geometry" />
        </mxCell>
        <mxCell id="4pEO-FSnWxKGjlkDkR4Z-43" value="" style="endArrow=none;html=1;rounded=0;entryX=0.005;entryY=0.08;entryDx=0;entryDy=0;entryPerimeter=0;edgeStyle=orthogonalEdgeStyle;" parent="1" target="4pEO-FSnWxKGjlkDkR4Z-42" edge="1">
          <mxGeometry width="50" height="50" relative="1" as="geometry">
            <mxPoint x="130" y="630" as="sourcePoint" />
            <mxPoint x="240" y="540" as="targetPoint" />
            <Array as="points">
              <mxPoint x="130" y="630" />
              <mxPoint x="170" y="630" />
              <mxPoint x="170" y="50" />
              <mxPoint x="280" y="50" />
            </Array>
          </mxGeometry>
        </mxCell>
        <mxCell id="4pEO-FSnWxKGjlkDkR4Z-44" value="" style="endArrow=none;html=1;rounded=0;entryX=-0.054;entryY=0.08;entryDx=0;entryDy=0;entryPerimeter=0;edgeStyle=orthogonalEdgeStyle;" parent="1" edge="1">
          <mxGeometry width="50" height="50" relative="1" as="geometry">
            <mxPoint x="130" y="650" as="sourcePoint" />
            <mxPoint x="280" y="70" as="targetPoint" />
            <Array as="points">
              <mxPoint x="130" y="650" />
              <mxPoint x="180" y="650" />
              <mxPoint x="180" y="70" />
            </Array>
          </mxGeometry>
        </mxCell>
        <mxCell id="4pEO-FSnWxKGjlkDkR4Z-45" value="" style="endArrow=none;html=1;rounded=0;entryX=-0.054;entryY=0.08;entryDx=0;entryDy=0;entryPerimeter=0;edgeStyle=orthogonalEdgeStyle;" parent="1" edge="1">
          <mxGeometry width="50" height="50" relative="1" as="geometry">
            <mxPoint x="130" y="670" as="sourcePoint" />
            <mxPoint x="279.75" y="90" as="targetPoint" />
            <Array as="points">
              <mxPoint x="130" y="670" />
              <mxPoint x="190" y="670" />
              <mxPoint x="190" y="90" />
            </Array>
          </mxGeometry>
        </mxCell>
        <mxCell id="4pEO-FSnWxKGjlkDkR4Z-46" value="" style="endArrow=none;html=1;rounded=0;entryX=-0.054;entryY=0.08;entryDx=0;entryDy=0;entryPerimeter=0;edgeStyle=orthogonalEdgeStyle;" parent="1" edge="1">
          <mxGeometry width="50" height="50" relative="1" as="geometry">
            <mxPoint x="130" y="690" as="sourcePoint" />
            <mxPoint x="280" y="110" as="targetPoint" />
            <Array as="points">
              <mxPoint x="130" y="690" />
              <mxPoint x="200" y="690" />
              <mxPoint x="200" y="110" />
            </Array>
          </mxGeometry>
        </mxCell>
        <mxCell id="4pEO-FSnWxKGjlkDkR4Z-47" value="" style="endArrow=none;html=1;rounded=0;entryX=-0.054;entryY=0.08;entryDx=0;entryDy=0;entryPerimeter=0;edgeStyle=orthogonalEdgeStyle;" parent="1" edge="1">
          <mxGeometry width="50" height="50" relative="1" as="geometry">
            <mxPoint x="130" y="710" as="sourcePoint" />
            <mxPoint x="279.75" y="130" as="targetPoint" />
            <Array as="points">
              <mxPoint x="130" y="710" />
              <mxPoint x="210" y="710" />
              <mxPoint x="210" y="130" />
            </Array>
          </mxGeometry>
        </mxCell>
        <mxCell id="4pEO-FSnWxKGjlkDkR4Z-48" value="" style="endArrow=none;html=1;rounded=0;entryX=-0.054;entryY=0.08;entryDx=0;entryDy=0;entryPerimeter=0;edgeStyle=orthogonalEdgeStyle;" parent="1" edge="1">
          <mxGeometry width="50" height="50" relative="1" as="geometry">
            <mxPoint x="130" y="730" as="sourcePoint" />
            <mxPoint x="280" y="150" as="targetPoint" />
            <Array as="points">
              <mxPoint x="130" y="730" />
              <mxPoint x="220" y="730" />
              <mxPoint x="220" y="150" />
            </Array>
          </mxGeometry>
        </mxCell>
        <mxCell id="4pEO-FSnWxKGjlkDkR4Z-49" value="" style="endArrow=none;html=1;rounded=0;entryX=-0.054;entryY=0.08;entryDx=0;entryDy=0;entryPerimeter=0;edgeStyle=orthogonalEdgeStyle;" parent="1" edge="1">
          <mxGeometry width="50" height="50" relative="1" as="geometry">
            <mxPoint x="130" y="750" as="sourcePoint" />
            <mxPoint x="280" y="170" as="targetPoint" />
            <Array as="points">
              <mxPoint x="130" y="750" />
              <mxPoint x="230" y="750" />
              <mxPoint x="230" y="170" />
            </Array>
          </mxGeometry>
        </mxCell>
        <mxCell id="4pEO-FSnWxKGjlkDkR4Z-50" value="" style="endArrow=none;html=1;rounded=0;entryX=-0.054;entryY=0.08;entryDx=0;entryDy=0;entryPerimeter=0;edgeStyle=orthogonalEdgeStyle;" parent="1" edge="1">
          <mxGeometry width="50" height="50" relative="1" as="geometry">
            <mxPoint x="130" y="770" as="sourcePoint" />
            <mxPoint x="280" y="190" as="targetPoint" />
            <Array as="points">
              <mxPoint x="130" y="770" />
              <mxPoint x="240" y="770" />
              <mxPoint x="240" y="190" />
            </Array>
          </mxGeometry>
        </mxCell>
        <mxCell id="kULfGk2Q9Bk4X03VSDus-2" value="L0" style="text;html=1;align=center;verticalAlign=middle;resizable=0;points=[];autosize=1;strokeColor=none;fillColor=none;fontSize=11;fontFamily=Helvetica;fontColor=default;spacing=0;" parent="1" vertex="1">
          <mxGeometry x="810" y="97.25" width="30" height="20" as="geometry" />
        </mxCell>
        <mxCell id="kULfGk2Q9Bk4X03VSDus-3" value="" style="endArrow=none;html=1;rounded=0;exitX=1;exitY=0.5;exitDx=0;exitDy=0;" parent="1" source="4pEO-FSnWxKGjlkDkR4Z-42" edge="1">
          <mxGeometry width="50" height="50" relative="1" as="geometry">
            <mxPoint x="321.50000000000045" y="119.99999999999997" as="sourcePoint" />
            <mxPoint x="840" y="120" as="targetPoint" />
          </mxGeometry>
        </mxCell>
        <mxCell id="CBTltdrFcW9LJEbuVCIk-1" value="&lt;font style=&quot;font-size: 10px&quot;&gt;1&lt;/font&gt;" style="rounded=0;whiteSpace=wrap;html=1;fontSize=10;" parent="1" vertex="1">
          <mxGeometry x="280" y="220" width="39" height="50" as="geometry" />
        </mxCell>
        <mxCell id="CBTltdrFcW9LJEbuVCIk-50" style="edgeStyle=orthogonalEdgeStyle;rounded=0;orthogonalLoop=1;jettySize=auto;html=1;exitX=1;exitY=0.5;exitDx=0;exitDy=0;entryX=0;entryY=0.25;entryDx=0;entryDy=0;endArrow=none;endFill=0;" parent="1" source="CBTltdrFcW9LJEbuVCIk-2" target="CBTltdrFcW9LJEbuVCIk-45" edge="1">
          <mxGeometry relative="1" as="geometry">
            <Array as="points">
              <mxPoint x="330" y="245" />
              <mxPoint x="330" y="333" />
            </Array>
          </mxGeometry>
        </mxCell>
        <mxCell id="CBTltdrFcW9LJEbuVCIk-2" value="" style="ellipse;whiteSpace=wrap;html=1;aspect=fixed;fontSize=12;fontColor=#000000;" parent="1" vertex="1">
          <mxGeometry x="316" y="242" width="5.5" height="5.5" as="geometry" />
        </mxCell>
        <mxCell id="CBTltdrFcW9LJEbuVCIk-33" style="edgeStyle=orthogonalEdgeStyle;rounded=0;orthogonalLoop=1;jettySize=auto;html=1;exitX=1;exitY=0.5;exitDx=0;exitDy=0;entryX=0;entryY=0.25;entryDx=0;entryDy=0;endArrow=none;endFill=0;" parent="1" source="CBTltdrFcW9LJEbuVCIk-3" target="CBTltdrFcW9LJEbuVCIk-32" edge="1">
          <mxGeometry relative="1" as="geometry" />
        </mxCell>
        <mxCell id="CBTltdrFcW9LJEbuVCIk-3" value="&lt;font style=&quot;font-size: 10px&quot;&gt;=1&lt;/font&gt;" style="rounded=0;whiteSpace=wrap;html=1;fontSize=10;" parent="1" vertex="1">
          <mxGeometry x="280" y="290" width="39" height="50" as="geometry" />
        </mxCell>
        <mxCell id="CBTltdrFcW9LJEbuVCIk-5" value="&lt;font style=&quot;font-size: 10px&quot;&gt;1&lt;/font&gt;" style="rounded=0;whiteSpace=wrap;html=1;fontSize=10;" parent="1" vertex="1">
          <mxGeometry x="280" y="360" width="39" height="50" as="geometry" />
        </mxCell>
        <mxCell id="CBTltdrFcW9LJEbuVCIk-47" style="edgeStyle=orthogonalEdgeStyle;rounded=0;orthogonalLoop=1;jettySize=auto;html=1;exitX=1;exitY=0.5;exitDx=0;exitDy=0;entryX=0;entryY=0.5;entryDx=0;entryDy=0;endArrow=none;endFill=0;" parent="1" source="CBTltdrFcW9LJEbuVCIk-6" target="CBTltdrFcW9LJEbuVCIk-45" edge="1">
          <mxGeometry relative="1" as="geometry">
            <Array as="points">
              <mxPoint x="340" y="385" />
              <mxPoint x="340" y="345" />
            </Array>
          </mxGeometry>
        </mxCell>
        <mxCell id="CBTltdrFcW9LJEbuVCIk-6" value="" style="ellipse;whiteSpace=wrap;html=1;aspect=fixed;fontSize=12;fontColor=#000000;" parent="1" vertex="1">
          <mxGeometry x="316" y="382" width="5.5" height="5.5" as="geometry" />
        </mxCell>
        <mxCell id="CBTltdrFcW9LJEbuVCIk-34" style="edgeStyle=orthogonalEdgeStyle;rounded=0;orthogonalLoop=1;jettySize=auto;html=1;exitX=1;exitY=0.5;exitDx=0;exitDy=0;entryX=0;entryY=0.75;entryDx=0;entryDy=0;endArrow=none;endFill=0;" parent="1" source="CBTltdrFcW9LJEbuVCIk-7" target="CBTltdrFcW9LJEbuVCIk-32" edge="1">
          <mxGeometry relative="1" as="geometry" />
        </mxCell>
        <mxCell id="CBTltdrFcW9LJEbuVCIk-7" value="&lt;font style=&quot;font-size: 10px&quot;&gt;=1&lt;/font&gt;" style="rounded=0;whiteSpace=wrap;html=1;fontSize=10;" parent="1" vertex="1">
          <mxGeometry x="280" y="430" width="39" height="50" as="geometry" />
        </mxCell>
        <mxCell id="CBTltdrFcW9LJEbuVCIk-8" value="&lt;font style=&quot;font-size: 10px&quot;&gt;1&lt;/font&gt;" style="rounded=0;whiteSpace=wrap;html=1;fontSize=10;" parent="1" vertex="1">
          <mxGeometry x="280" y="500" width="39" height="50" as="geometry" />
        </mxCell>
        <mxCell id="CBTltdrFcW9LJEbuVCIk-53" style="edgeStyle=orthogonalEdgeStyle;rounded=0;orthogonalLoop=1;jettySize=auto;html=1;exitX=1;exitY=0.5;exitDx=0;exitDy=0;entryX=0;entryY=0.25;entryDx=0;entryDy=0;endArrow=none;endFill=0;" parent="1" source="CBTltdrFcW9LJEbuVCIk-9" target="CBTltdrFcW9LJEbuVCIk-49" edge="1">
          <mxGeometry relative="1" as="geometry">
            <Array as="points">
              <mxPoint x="330" y="525" />
              <mxPoint x="330" y="603" />
            </Array>
          </mxGeometry>
        </mxCell>
        <mxCell id="CBTltdrFcW9LJEbuVCIk-9" value="" style="ellipse;whiteSpace=wrap;html=1;aspect=fixed;fontSize=12;fontColor=#000000;" parent="1" vertex="1">
          <mxGeometry x="316" y="522" width="5.5" height="5.5" as="geometry" />
        </mxCell>
        <mxCell id="CBTltdrFcW9LJEbuVCIk-37" style="edgeStyle=orthogonalEdgeStyle;rounded=0;orthogonalLoop=1;jettySize=auto;html=1;exitX=1;exitY=0.5;exitDx=0;exitDy=0;entryX=0;entryY=0.25;entryDx=0;entryDy=0;endArrow=none;endFill=0;" parent="1" source="CBTltdrFcW9LJEbuVCIk-10" target="CBTltdrFcW9LJEbuVCIk-35" edge="1">
          <mxGeometry relative="1" as="geometry" />
        </mxCell>
        <mxCell id="CBTltdrFcW9LJEbuVCIk-10" value="&lt;font style=&quot;font-size: 10px&quot;&gt;=1&lt;/font&gt;" style="rounded=0;whiteSpace=wrap;html=1;fontSize=10;" parent="1" vertex="1">
          <mxGeometry x="280" y="570" width="39" height="50" as="geometry" />
        </mxCell>
        <mxCell id="CBTltdrFcW9LJEbuVCIk-11" value="&lt;font style=&quot;font-size: 10px&quot;&gt;1&lt;/font&gt;" style="rounded=0;whiteSpace=wrap;html=1;fontSize=10;" parent="1" vertex="1">
          <mxGeometry x="280" y="640" width="39" height="50" as="geometry" />
        </mxCell>
        <mxCell id="CBTltdrFcW9LJEbuVCIk-52" style="edgeStyle=orthogonalEdgeStyle;rounded=0;orthogonalLoop=1;jettySize=auto;html=1;exitX=1;exitY=0.5;exitDx=0;exitDy=0;entryX=0;entryY=0.5;entryDx=0;entryDy=0;endArrow=none;endFill=0;" parent="1" source="CBTltdrFcW9LJEbuVCIk-12" target="CBTltdrFcW9LJEbuVCIk-49" edge="1">
          <mxGeometry relative="1" as="geometry">
            <Array as="points">
              <mxPoint x="340" y="665" />
              <mxPoint x="340" y="615" />
            </Array>
          </mxGeometry>
        </mxCell>
        <mxCell id="CBTltdrFcW9LJEbuVCIk-12" value="" style="ellipse;whiteSpace=wrap;html=1;aspect=fixed;fontSize=12;fontColor=#000000;" parent="1" vertex="1">
          <mxGeometry x="316" y="662" width="5.5" height="5.5" as="geometry" />
        </mxCell>
        <mxCell id="CBTltdrFcW9LJEbuVCIk-36" style="edgeStyle=orthogonalEdgeStyle;rounded=0;orthogonalLoop=1;jettySize=auto;html=1;exitX=1;exitY=0.5;exitDx=0;exitDy=0;entryX=0;entryY=0.75;entryDx=0;entryDy=0;endArrow=none;endFill=0;" parent="1" source="CBTltdrFcW9LJEbuVCIk-13" target="CBTltdrFcW9LJEbuVCIk-35" edge="1">
          <mxGeometry relative="1" as="geometry" />
        </mxCell>
        <mxCell id="CBTltdrFcW9LJEbuVCIk-13" value="&lt;font style=&quot;font-size: 10px&quot;&gt;=1&lt;/font&gt;" style="rounded=0;whiteSpace=wrap;html=1;fontSize=10;" parent="1" vertex="1">
          <mxGeometry x="280" y="710" width="39" height="50" as="geometry" />
        </mxCell>
        <mxCell id="CBTltdrFcW9LJEbuVCIk-14" value="" style="endArrow=none;html=1;rounded=0;entryX=0;entryY=0.25;entryDx=0;entryDy=0;endFill=0;startArrow=oval;startFill=1;startSize=4;" parent="1" target="CBTltdrFcW9LJEbuVCIk-1" edge="1">
          <mxGeometry width="50" height="50" relative="1" as="geometry">
            <mxPoint x="170" y="233" as="sourcePoint" />
            <mxPoint x="410" y="200" as="targetPoint" />
          </mxGeometry>
        </mxCell>
        <mxCell id="CBTltdrFcW9LJEbuVCIk-17" value="" style="endArrow=none;html=1;rounded=0;entryX=0;entryY=0.75;entryDx=0;entryDy=0;endFill=0;startArrow=oval;startFill=1;startSize=4;" parent="1" target="CBTltdrFcW9LJEbuVCIk-1" edge="1">
          <mxGeometry width="50" height="50" relative="1" as="geometry">
            <mxPoint x="180" y="258" as="sourcePoint" />
            <mxPoint x="270" y="260" as="targetPoint" />
          </mxGeometry>
        </mxCell>
        <mxCell id="CBTltdrFcW9LJEbuVCIk-18" value="" style="endArrow=none;html=1;rounded=0;entryX=0;entryY=0.25;entryDx=0;entryDy=0;endFill=0;startArrow=oval;startFill=1;startSize=4;" parent="1" edge="1">
          <mxGeometry width="50" height="50" relative="1" as="geometry">
            <mxPoint x="170" y="303" as="sourcePoint" />
            <mxPoint x="280" y="303" as="targetPoint" />
          </mxGeometry>
        </mxCell>
        <mxCell id="CBTltdrFcW9LJEbuVCIk-19" value="" style="endArrow=none;html=1;rounded=0;entryX=0;entryY=0.75;entryDx=0;entryDy=0;endFill=0;startArrow=oval;startFill=1;startSize=4;" parent="1" edge="1">
          <mxGeometry width="50" height="50" relative="1" as="geometry">
            <mxPoint x="180" y="328" as="sourcePoint" />
            <mxPoint x="280" y="328" as="targetPoint" />
          </mxGeometry>
        </mxCell>
        <mxCell id="CBTltdrFcW9LJEbuVCIk-20" value="" style="endArrow=none;html=1;rounded=0;endFill=0;startArrow=oval;startFill=1;startSize=4;" parent="1" edge="1">
          <mxGeometry width="50" height="50" relative="1" as="geometry">
            <mxPoint x="190" y="373" as="sourcePoint" />
            <mxPoint x="280" y="373" as="targetPoint" />
          </mxGeometry>
        </mxCell>
        <mxCell id="CBTltdrFcW9LJEbuVCIk-21" value="" style="endArrow=none;html=1;rounded=0;endFill=0;startArrow=oval;startFill=1;startSize=4;" parent="1" edge="1">
          <mxGeometry width="50" height="50" relative="1" as="geometry">
            <mxPoint x="200" y="397" as="sourcePoint" />
            <mxPoint x="280" y="397.29" as="targetPoint" />
          </mxGeometry>
        </mxCell>
        <mxCell id="CBTltdrFcW9LJEbuVCIk-22" value="" style="endArrow=none;html=1;rounded=0;endFill=0;startArrow=oval;startFill=1;startSize=4;" parent="1" edge="1">
          <mxGeometry width="50" height="50" relative="1" as="geometry">
            <mxPoint x="190" y="442.7" as="sourcePoint" />
            <mxPoint x="280" y="442.7" as="targetPoint" />
          </mxGeometry>
        </mxCell>
        <mxCell id="CBTltdrFcW9LJEbuVCIk-23" value="" style="endArrow=none;html=1;rounded=0;endFill=0;startArrow=oval;startFill=1;startSize=4;" parent="1" edge="1">
          <mxGeometry width="50" height="50" relative="1" as="geometry">
            <mxPoint x="200" y="466.7" as="sourcePoint" />
            <mxPoint x="280" y="466.99" as="targetPoint" />
          </mxGeometry>
        </mxCell>
        <mxCell id="CBTltdrFcW9LJEbuVCIk-24" value="" style="endArrow=none;html=1;rounded=0;endFill=0;startArrow=oval;startFill=1;startSize=4;" parent="1" edge="1">
          <mxGeometry width="50" height="50" relative="1" as="geometry">
            <mxPoint x="210" y="513" as="sourcePoint" />
            <mxPoint x="280" y="513.29" as="targetPoint" />
          </mxGeometry>
        </mxCell>
        <mxCell id="CBTltdrFcW9LJEbuVCIk-25" value="" style="endArrow=none;html=1;rounded=0;endFill=0;startArrow=oval;startFill=1;startSize=4;" parent="1" edge="1">
          <mxGeometry width="50" height="50" relative="1" as="geometry">
            <mxPoint x="220" y="537" as="sourcePoint" />
            <mxPoint x="280" y="537.29" as="targetPoint" />
          </mxGeometry>
        </mxCell>
        <mxCell id="CBTltdrFcW9LJEbuVCIk-26" value="" style="endArrow=none;html=1;rounded=0;endFill=0;startArrow=oval;startFill=1;startSize=4;" parent="1" edge="1">
          <mxGeometry width="50" height="50" relative="1" as="geometry">
            <mxPoint x="210" y="583" as="sourcePoint" />
            <mxPoint x="280" y="583.29" as="targetPoint" />
          </mxGeometry>
        </mxCell>
        <mxCell id="CBTltdrFcW9LJEbuVCIk-27" value="" style="endArrow=none;html=1;rounded=0;endFill=0;startArrow=oval;startFill=1;startSize=4;" parent="1" edge="1">
          <mxGeometry width="50" height="50" relative="1" as="geometry">
            <mxPoint x="220" y="607" as="sourcePoint" />
            <mxPoint x="280" y="607.29" as="targetPoint" />
          </mxGeometry>
        </mxCell>
        <mxCell id="CBTltdrFcW9LJEbuVCIk-28" value="" style="endArrow=none;html=1;rounded=0;endFill=0;startArrow=oval;startFill=1;startSize=4;" parent="1" edge="1">
          <mxGeometry width="50" height="50" relative="1" as="geometry">
            <mxPoint x="230" y="653" as="sourcePoint" />
            <mxPoint x="280" y="652.78" as="targetPoint" />
          </mxGeometry>
        </mxCell>
        <mxCell id="CBTltdrFcW9LJEbuVCIk-29" value="" style="endArrow=none;html=1;rounded=0;endFill=0;startArrow=oval;startFill=1;startSize=4;" parent="1" edge="1">
          <mxGeometry width="50" height="50" relative="1" as="geometry">
            <mxPoint x="240" y="677" as="sourcePoint" />
            <mxPoint x="280" y="676.78" as="targetPoint" />
          </mxGeometry>
        </mxCell>
        <mxCell id="CBTltdrFcW9LJEbuVCIk-30" value="" style="endArrow=none;html=1;rounded=0;endFill=0;startArrow=oval;startFill=1;startSize=4;" parent="1" edge="1">
          <mxGeometry width="50" height="50" relative="1" as="geometry">
            <mxPoint x="230" y="723.01" as="sourcePoint" />
            <mxPoint x="280" y="722.79" as="targetPoint" />
          </mxGeometry>
        </mxCell>
        <mxCell id="CBTltdrFcW9LJEbuVCIk-31" value="" style="endArrow=none;html=1;rounded=0;endFill=0;startArrow=oval;startFill=1;startSize=4;" parent="1" edge="1">
          <mxGeometry width="50" height="50" relative="1" as="geometry">
            <mxPoint x="240" y="747.01" as="sourcePoint" />
            <mxPoint x="280" y="746.79" as="targetPoint" />
          </mxGeometry>
        </mxCell>
        <mxCell id="CBTltdrFcW9LJEbuVCIk-46" style="edgeStyle=orthogonalEdgeStyle;rounded=0;orthogonalLoop=1;jettySize=auto;html=1;exitX=1;exitY=0.5;exitDx=0;exitDy=0;entryX=0;entryY=0.75;entryDx=0;entryDy=0;endArrow=none;endFill=0;" parent="1" source="CBTltdrFcW9LJEbuVCIk-32" target="CBTltdrFcW9LJEbuVCIk-45" edge="1">
          <mxGeometry relative="1" as="geometry" />
        </mxCell>
        <mxCell id="CBTltdrFcW9LJEbuVCIk-32" value="&lt;font style=&quot;font-size: 10px&quot;&gt;&amp;amp;&lt;/font&gt;" style="rounded=0;whiteSpace=wrap;html=1;fontSize=10;" parent="1" vertex="1">
          <mxGeometry x="400" y="359.75" width="39" height="50" as="geometry" />
        </mxCell>
        <mxCell id="CBTltdrFcW9LJEbuVCIk-51" style="edgeStyle=orthogonalEdgeStyle;rounded=0;orthogonalLoop=1;jettySize=auto;html=1;exitX=1;exitY=0.5;exitDx=0;exitDy=0;entryX=0;entryY=0.75;entryDx=0;entryDy=0;endArrow=none;endFill=0;" parent="1" source="CBTltdrFcW9LJEbuVCIk-35" target="CBTltdrFcW9LJEbuVCIk-49" edge="1">
          <mxGeometry relative="1" as="geometry" />
        </mxCell>
        <mxCell id="CBTltdrFcW9LJEbuVCIk-35" value="&lt;font style=&quot;font-size: 10px&quot;&gt;&amp;amp;&lt;/font&gt;" style="rounded=0;whiteSpace=wrap;html=1;fontSize=10;" parent="1" vertex="1">
          <mxGeometry x="400" y="640" width="39" height="50" as="geometry" />
        </mxCell>
        <mxCell id="CBTltdrFcW9LJEbuVCIk-41" style="edgeStyle=orthogonalEdgeStyle;rounded=0;orthogonalLoop=1;jettySize=auto;html=1;exitX=0;exitY=0.25;exitDx=0;exitDy=0;endArrow=oval;endFill=1;startSize=4;endSize=4;" parent="1" source="CBTltdrFcW9LJEbuVCIk-38" edge="1">
          <mxGeometry relative="1" as="geometry">
            <mxPoint x="342.1971830985916" y="314.5915492957747" as="targetPoint" />
            <Array as="points">
              <mxPoint x="342" y="282" />
              <mxPoint x="342" y="315" />
            </Array>
          </mxGeometry>
        </mxCell>
        <mxCell id="CBTltdrFcW9LJEbuVCIk-56" style="edgeStyle=orthogonalEdgeStyle;rounded=0;orthogonalLoop=1;jettySize=auto;html=1;exitX=1;exitY=0.5;exitDx=0;exitDy=0;entryX=0;entryY=0.25;entryDx=0;entryDy=0;endArrow=none;endFill=0;" parent="1" source="CBTltdrFcW9LJEbuVCIk-38" target="CBTltdrFcW9LJEbuVCIk-54" edge="1">
          <mxGeometry relative="1" as="geometry">
            <Array as="points">
              <mxPoint x="450" y="295" />
              <mxPoint x="450" y="523" />
            </Array>
          </mxGeometry>
        </mxCell>
        <mxCell id="CBTltdrFcW9LJEbuVCIk-38" value="&lt;font style=&quot;font-size: 10px&quot;&gt;=1&lt;/font&gt;" style="rounded=0;whiteSpace=wrap;html=1;fontSize=10;" parent="1" vertex="1">
          <mxGeometry x="400" y="270" width="39" height="50" as="geometry" />
        </mxCell>
        <mxCell id="CBTltdrFcW9LJEbuVCIk-40" value="" style="endArrow=none;html=1;rounded=0;edgeStyle=orthogonalEdgeStyle;entryX=0;entryY=0.75;entryDx=0;entryDy=0;endFill=0;startArrow=oval;startFill=1;startSize=4;endSize=4;" parent="1" target="CBTltdrFcW9LJEbuVCIk-38" edge="1">
          <mxGeometry width="50" height="50" relative="1" as="geometry">
            <mxPoint x="376" y="397" as="sourcePoint" />
            <mxPoint x="391" y="323" as="targetPoint" />
            <Array as="points">
              <mxPoint x="376" y="307" />
              <mxPoint x="400" y="307" />
            </Array>
          </mxGeometry>
        </mxCell>
        <mxCell id="CBTltdrFcW9LJEbuVCIk-43" style="edgeStyle=orthogonalEdgeStyle;rounded=0;orthogonalLoop=1;jettySize=auto;html=1;exitX=0;exitY=0.75;exitDx=0;exitDy=0;endArrow=oval;endFill=1;startSize=4;endSize=4;" parent="1" source="CBTltdrFcW9LJEbuVCIk-42" edge="1">
          <mxGeometry relative="1" as="geometry">
            <mxPoint x="370" y="678" as="targetPoint" />
          </mxGeometry>
        </mxCell>
        <mxCell id="CBTltdrFcW9LJEbuVCIk-44" style="edgeStyle=orthogonalEdgeStyle;rounded=0;orthogonalLoop=1;jettySize=auto;html=1;exitX=0;exitY=0.25;exitDx=0;exitDy=0;endArrow=oval;endFill=1;startSize=4;endSize=4;" parent="1" source="CBTltdrFcW9LJEbuVCIk-42" edge="1">
          <mxGeometry relative="1" as="geometry">
            <mxPoint x="350" y="595" as="targetPoint" />
            <Array as="points">
              <mxPoint x="350" y="553" />
            </Array>
          </mxGeometry>
        </mxCell>
        <mxCell id="CBTltdrFcW9LJEbuVCIk-55" style="edgeStyle=orthogonalEdgeStyle;rounded=0;orthogonalLoop=1;jettySize=auto;html=1;exitX=1;exitY=0.5;exitDx=0;exitDy=0;entryX=0;entryY=0.75;entryDx=0;entryDy=0;endArrow=none;endFill=0;" parent="1" source="CBTltdrFcW9LJEbuVCIk-42" target="CBTltdrFcW9LJEbuVCIk-54" edge="1">
          <mxGeometry relative="1" as="geometry" />
        </mxCell>
        <mxCell id="CBTltdrFcW9LJEbuVCIk-42" value="&lt;font style=&quot;font-size: 10px&quot;&gt;=1&lt;/font&gt;" style="rounded=0;whiteSpace=wrap;html=1;fontSize=10;" parent="1" vertex="1">
          <mxGeometry x="400" y="540" width="39" height="50" as="geometry" />
        </mxCell>
        <mxCell id="CBTltdrFcW9LJEbuVCIk-64" style="edgeStyle=orthogonalEdgeStyle;rounded=0;orthogonalLoop=1;jettySize=auto;html=1;exitX=1;exitY=0.5;exitDx=0;exitDy=0;entryX=0;entryY=0.25;entryDx=0;entryDy=0;endArrow=none;endFill=0;" parent="1" source="CBTltdrFcW9LJEbuVCIk-45" target="CBTltdrFcW9LJEbuVCIk-60" edge="1">
          <mxGeometry relative="1" as="geometry" />
        </mxCell>
        <mxCell id="CBTltdrFcW9LJEbuVCIk-45" value="&lt;font style=&quot;font-size: 10px&quot;&gt;1&lt;/font&gt;" style="rounded=0;whiteSpace=wrap;html=1;fontSize=10;" parent="1" vertex="1">
          <mxGeometry x="490" y="320" width="39" height="50" as="geometry" />
        </mxCell>
        <mxCell id="CBTltdrFcW9LJEbuVCIk-62" style="edgeStyle=orthogonalEdgeStyle;rounded=0;orthogonalLoop=1;jettySize=auto;html=1;exitX=1;exitY=0.5;exitDx=0;exitDy=0;entryX=0;entryY=0.75;entryDx=0;entryDy=0;endArrow=none;endFill=0;" parent="1" source="CBTltdrFcW9LJEbuVCIk-49" target="CBTltdrFcW9LJEbuVCIk-60" edge="1">
          <mxGeometry relative="1" as="geometry" />
        </mxCell>
        <mxCell id="CBTltdrFcW9LJEbuVCIk-49" value="&lt;font style=&quot;font-size: 10px&quot;&gt;1&lt;/font&gt;" style="rounded=0;whiteSpace=wrap;html=1;fontSize=10;" parent="1" vertex="1">
          <mxGeometry x="480" y="590" width="39" height="50" as="geometry" />
        </mxCell>
        <mxCell id="CBTltdrFcW9LJEbuVCIk-63" style="edgeStyle=orthogonalEdgeStyle;rounded=0;orthogonalLoop=1;jettySize=auto;html=1;exitX=1;exitY=0.5;exitDx=0;exitDy=0;entryX=0;entryY=0.5;entryDx=0;entryDy=0;endArrow=none;endFill=0;" parent="1" source="CBTltdrFcW9LJEbuVCIk-54" target="CBTltdrFcW9LJEbuVCIk-60" edge="1">
          <mxGeometry relative="1" as="geometry" />
        </mxCell>
        <mxCell id="CBTltdrFcW9LJEbuVCIk-54" value="&lt;font style=&quot;font-size: 10px&quot;&gt;&amp;amp;&lt;/font&gt;" style="rounded=0;whiteSpace=wrap;html=1;fontSize=10;" parent="1" vertex="1">
          <mxGeometry x="481" y="510" width="39" height="50" as="geometry" />
        </mxCell>
        <mxCell id="CBTltdrFcW9LJEbuVCIk-59" style="edgeStyle=orthogonalEdgeStyle;rounded=0;orthogonalLoop=1;jettySize=auto;html=1;exitX=0;exitY=0.75;exitDx=0;exitDy=0;endArrow=oval;endFill=1;startSize=4;endSize=4;" parent="1" source="CBTltdrFcW9LJEbuVCIk-57" edge="1">
          <mxGeometry relative="1" as="geometry">
            <mxPoint x="470" y="548" as="targetPoint" />
            <Array as="points">
              <mxPoint x="470" y="451" />
            </Array>
          </mxGeometry>
        </mxCell>
        <mxCell id="CBTltdrFcW9LJEbuVCIk-67" style="edgeStyle=orthogonalEdgeStyle;rounded=0;orthogonalLoop=1;jettySize=auto;html=1;exitX=1;exitY=0.5;exitDx=0;exitDy=0;entryX=0;entryY=0.25;entryDx=0;entryDy=0;endArrow=none;endFill=0;" parent="1" source="CBTltdrFcW9LJEbuVCIk-57" target="CBTltdrFcW9LJEbuVCIk-65" edge="1">
          <mxGeometry relative="1" as="geometry" />
        </mxCell>
        <mxCell id="CBTltdrFcW9LJEbuVCIk-57" value="&lt;font style=&quot;font-size: 10px&quot;&gt;=1&lt;/font&gt;" style="rounded=0;whiteSpace=wrap;html=1;fontSize=10;" parent="1" vertex="1">
          <mxGeometry x="481" y="414" width="39" height="50" as="geometry" />
        </mxCell>
        <mxCell id="CBTltdrFcW9LJEbuVCIk-58" value="" style="endArrow=none;html=1;rounded=0;entryX=0;entryY=0.25;entryDx=0;entryDy=0;endFill=0;startArrow=oval;startFill=1;startSize=4;endSize=5;" parent="1" target="CBTltdrFcW9LJEbuVCIk-57" edge="1">
          <mxGeometry width="50" height="50" relative="1" as="geometry">
            <mxPoint x="450" y="427" as="sourcePoint" />
            <mxPoint x="520" y="420" as="targetPoint" />
          </mxGeometry>
        </mxCell>
        <mxCell id="CBTltdrFcW9LJEbuVCIk-60" value="&lt;font style=&quot;font-size: 10px&quot;&gt;1&lt;/font&gt;" style="rounded=0;whiteSpace=wrap;html=1;fontSize=10;" parent="1" vertex="1">
          <mxGeometry x="600" y="520" width="39" height="50" as="geometry" />
        </mxCell>
        <mxCell id="CBTltdrFcW9LJEbuVCIk-66" style="edgeStyle=orthogonalEdgeStyle;rounded=0;orthogonalLoop=1;jettySize=auto;html=1;exitX=1;exitY=0.5;exitDx=0;exitDy=0;entryX=0;entryY=0.75;entryDx=0;entryDy=0;endArrow=none;endFill=0;" parent="1" source="CBTltdrFcW9LJEbuVCIk-61" target="CBTltdrFcW9LJEbuVCIk-65" edge="1">
          <mxGeometry relative="1" as="geometry">
            <Array as="points">
              <mxPoint x="660" y="545" />
              <mxPoint x="660" y="464" />
              <mxPoint x="680" y="464" />
            </Array>
          </mxGeometry>
        </mxCell>
        <mxCell id="CBTltdrFcW9LJEbuVCIk-61" value="" style="ellipse;whiteSpace=wrap;html=1;aspect=fixed;fontSize=12;fontColor=#000000;" parent="1" vertex="1">
          <mxGeometry x="636" y="542" width="5.5" height="5.5" as="geometry" />
        </mxCell>
        <mxCell id="CBTltdrFcW9LJEbuVCIk-68" style="edgeStyle=orthogonalEdgeStyle;rounded=0;orthogonalLoop=1;jettySize=auto;html=1;exitX=1;exitY=0.5;exitDx=0;exitDy=0;endArrow=none;endFill=0;" parent="1" source="CBTltdrFcW9LJEbuVCIk-65" edge="1">
          <mxGeometry relative="1" as="geometry">
            <mxPoint x="840" y="452" as="targetPoint" />
          </mxGeometry>
        </mxCell>
        <mxCell id="CBTltdrFcW9LJEbuVCIk-65" value="&lt;font style=&quot;font-size: 10px&quot;&gt;&amp;amp;&lt;/font&gt;" style="rounded=0;whiteSpace=wrap;html=1;fontSize=10;" parent="1" vertex="1">
          <mxGeometry x="680" y="427" width="39" height="50" as="geometry" />
        </mxCell>
        <mxCell id="CBTltdrFcW9LJEbuVCIk-69" value="L1" style="text;html=1;align=center;verticalAlign=middle;resizable=0;points=[];autosize=1;strokeColor=none;fillColor=none;fontSize=11;fontFamily=Helvetica;fontColor=default;spacing=0;" parent="1" vertex="1">
          <mxGeometry x="810" y="427" width="30" height="20" as="geometry" />
        </mxCell>
        <mxCell id="CBTltdrFcW9LJEbuVCIk-72" style="edgeStyle=orthogonalEdgeStyle;rounded=0;orthogonalLoop=1;jettySize=auto;html=1;exitX=0;exitY=0.75;exitDx=0;exitDy=0;endArrow=oval;endFill=1;startSize=4;endSize=4;" parent="1" source="CBTltdrFcW9LJEbuVCIk-70" edge="1">
          <mxGeometry relative="1" as="geometry">
            <mxPoint x="730" y="452" as="targetPoint" />
          </mxGeometry>
        </mxCell>
        <mxCell id="CBTltdrFcW9LJEbuVCIk-70" value="&lt;font style=&quot;font-size: 10px&quot;&gt;1&lt;/font&gt;" style="rounded=0;whiteSpace=wrap;html=1;fontSize=10;" parent="1" vertex="1">
          <mxGeometry x="758.5" y="527.5" width="39" height="50" as="geometry" />
        </mxCell>
        <mxCell id="CBTltdrFcW9LJEbuVCIk-74" style="edgeStyle=orthogonalEdgeStyle;rounded=0;orthogonalLoop=1;jettySize=auto;html=1;exitX=1;exitY=0.5;exitDx=0;exitDy=0;endArrow=none;endFill=0;" parent="1" source="CBTltdrFcW9LJEbuVCIk-71" edge="1">
          <mxGeometry relative="1" as="geometry">
            <mxPoint x="840" y="552.3333333333334" as="targetPoint" />
          </mxGeometry>
        </mxCell>
        <mxCell id="CBTltdrFcW9LJEbuVCIk-71" value="" style="ellipse;whiteSpace=wrap;html=1;aspect=fixed;fontSize=12;fontColor=#000000;" parent="1" vertex="1">
          <mxGeometry x="794.5" y="549.5" width="5.5" height="5.5" as="geometry" />
        </mxCell>
        <mxCell id="CBTltdrFcW9LJEbuVCIk-73" value="" style="endArrow=none;html=1;rounded=0;exitX=0;exitY=0.25;exitDx=0;exitDy=0;edgeStyle=orthogonalEdgeStyle;" parent="1" source="CBTltdrFcW9LJEbuVCIk-70" edge="1">
          <mxGeometry width="50" height="50" relative="1" as="geometry">
            <mxPoint x="720" y="240" as="sourcePoint" />
            <mxPoint x="749" y="120" as="targetPoint" />
            <Array as="points">
              <mxPoint x="749" y="540" />
              <mxPoint x="749" y="120" />
            </Array>
          </mxGeometry>
        </mxCell>
        <mxCell id="CBTltdrFcW9LJEbuVCIk-75" value="L2" style="text;html=1;align=center;verticalAlign=middle;resizable=0;points=[];autosize=1;strokeColor=none;fillColor=none;fontSize=11;fontFamily=Helvetica;fontColor=default;spacing=0;" parent="1" vertex="1">
          <mxGeometry x="810" y="530" width="30" height="20" as="geometry" />
        </mxCell>
        <mxCell id="CBTltdrFcW9LJEbuVCIk-76" value="RGSH[1] v d1" style="text;html=1;align=center;verticalAlign=middle;resizable=0;points=[];autosize=1;strokeColor=none;fillColor=none;fontSize=11;fontFamily=Helvetica;fontColor=default;spacing=0;" parent="1" vertex="1">
          <mxGeometry x="44.75" y="640" width="90" height="20" as="geometry" />
        </mxCell>
        <mxCell id="CBTltdrFcW9LJEbuVCIk-77" value="RGSH[2] v d2" style="text;html=1;align=center;verticalAlign=middle;resizable=0;points=[];autosize=1;strokeColor=none;fillColor=none;fontSize=11;fontFamily=Helvetica;fontColor=default;spacing=0;" parent="1" vertex="1">
          <mxGeometry x="44.75" y="660" width="90" height="20" as="geometry" />
        </mxCell>
        <mxCell id="CBTltdrFcW9LJEbuVCIk-78" value="RGSH[3] v d3" style="text;html=1;align=center;verticalAlign=middle;resizable=0;points=[];autosize=1;strokeColor=none;fillColor=none;fontSize=11;fontFamily=Helvetica;fontColor=default;spacing=0;" parent="1" vertex="1">
          <mxGeometry x="44.75" y="680" width="90" height="20" as="geometry" />
        </mxCell>
        <mxCell id="CBTltdrFcW9LJEbuVCIk-79" value="RGSH[4] v d4" style="text;html=1;align=center;verticalAlign=middle;resizable=0;points=[];autosize=1;strokeColor=none;fillColor=none;fontSize=11;fontFamily=Helvetica;fontColor=default;spacing=0;" parent="1" vertex="1">
          <mxGeometry x="44.75" y="700" width="90" height="20" as="geometry" />
        </mxCell>
        <mxCell id="CBTltdrFcW9LJEbuVCIk-80" value="RGSH[5] v d5" style="text;html=1;align=center;verticalAlign=middle;resizable=0;points=[];autosize=1;strokeColor=none;fillColor=none;fontSize=11;fontFamily=Helvetica;fontColor=default;spacing=0;" parent="1" vertex="1">
          <mxGeometry x="44.75" y="720" width="90" height="20" as="geometry" />
        </mxCell>
        <mxCell id="CBTltdrFcW9LJEbuVCIk-81" value="RGSH[6] v d6" style="text;html=1;align=center;verticalAlign=middle;resizable=0;points=[];autosize=1;strokeColor=none;fillColor=none;fontSize=11;fontFamily=Helvetica;fontColor=default;spacing=0;" parent="1" vertex="1">
          <mxGeometry x="44.75" y="740" width="90" height="20" as="geometry" />
        </mxCell>
        <mxCell id="CBTltdrFcW9LJEbuVCIk-82" value="RGSH[7] v d7" style="text;html=1;align=center;verticalAlign=middle;resizable=0;points=[];autosize=1;strokeColor=none;fillColor=none;fontSize=11;fontFamily=Helvetica;fontColor=default;spacing=0;" parent="1" vertex="1">
          <mxGeometry x="44.75" y="760" width="90" height="20" as="geometry" />
        </mxCell>
      </root>
    </mxGraphModel>
  </diagram>
  <diagram id="qPxWmAgky5GlXYPoU--o" name="LS2 RD">
    <mxGraphModel dx="1434" dy="796" grid="1" gridSize="10" guides="1" tooltips="1" connect="1" arrows="1" fold="1" page="1" pageScale="1" pageWidth="1169" pageHeight="827" math="0" shadow="0">
      <root>
        <mxCell id="0" />
        <mxCell id="1" parent="0" />
        <mxCell id="naxsbKN_Zz8DH2uQA-av-1" value="RGSH[0] v d0" style="text;html=1;align=center;verticalAlign=middle;resizable=0;points=[];autosize=1;strokeColor=none;fillColor=none;fontSize=11;fontFamily=Helvetica;fontColor=default;spacing=0;" parent="1" vertex="1">
          <mxGeometry x="44.75" y="620" width="90" height="20" as="geometry" />
        </mxCell>
        <mxCell id="naxsbKN_Zz8DH2uQA-av-2" value="&lt;font style=&quot;font-size: 10px&quot;&gt;1&lt;/font&gt;" style="rounded=0;whiteSpace=wrap;html=1;fontSize=10;" parent="1" vertex="1">
          <mxGeometry x="280" y="40" width="39" height="160" as="geometry" />
        </mxCell>
        <mxCell id="naxsbKN_Zz8DH2uQA-av-3" value="" style="endArrow=none;html=1;rounded=0;entryX=0.005;entryY=0.08;entryDx=0;entryDy=0;entryPerimeter=0;edgeStyle=orthogonalEdgeStyle;" parent="1" target="naxsbKN_Zz8DH2uQA-av-2" edge="1">
          <mxGeometry width="50" height="50" relative="1" as="geometry">
            <mxPoint x="130" y="630" as="sourcePoint" />
            <mxPoint x="240" y="540" as="targetPoint" />
            <Array as="points">
              <mxPoint x="130" y="630" />
              <mxPoint x="170" y="630" />
              <mxPoint x="170" y="50" />
              <mxPoint x="280" y="50" />
            </Array>
          </mxGeometry>
        </mxCell>
        <mxCell id="naxsbKN_Zz8DH2uQA-av-4" value="" style="endArrow=none;html=1;rounded=0;entryX=-0.054;entryY=0.08;entryDx=0;entryDy=0;entryPerimeter=0;edgeStyle=orthogonalEdgeStyle;" parent="1" edge="1">
          <mxGeometry width="50" height="50" relative="1" as="geometry">
            <mxPoint x="130" y="650" as="sourcePoint" />
            <mxPoint x="280" y="70" as="targetPoint" />
            <Array as="points">
              <mxPoint x="130" y="650" />
              <mxPoint x="180" y="650" />
              <mxPoint x="180" y="70" />
            </Array>
          </mxGeometry>
        </mxCell>
        <mxCell id="naxsbKN_Zz8DH2uQA-av-5" value="" style="endArrow=none;html=1;rounded=0;entryX=-0.054;entryY=0.08;entryDx=0;entryDy=0;entryPerimeter=0;edgeStyle=orthogonalEdgeStyle;" parent="1" edge="1">
          <mxGeometry width="50" height="50" relative="1" as="geometry">
            <mxPoint x="130" y="670" as="sourcePoint" />
            <mxPoint x="279.75" y="90" as="targetPoint" />
            <Array as="points">
              <mxPoint x="130" y="670" />
              <mxPoint x="190" y="670" />
              <mxPoint x="190" y="90" />
            </Array>
          </mxGeometry>
        </mxCell>
        <mxCell id="naxsbKN_Zz8DH2uQA-av-6" value="" style="endArrow=none;html=1;rounded=0;entryX=-0.054;entryY=0.08;entryDx=0;entryDy=0;entryPerimeter=0;edgeStyle=orthogonalEdgeStyle;" parent="1" edge="1">
          <mxGeometry width="50" height="50" relative="1" as="geometry">
            <mxPoint x="130" y="690" as="sourcePoint" />
            <mxPoint x="280" y="110" as="targetPoint" />
            <Array as="points">
              <mxPoint x="130" y="690" />
              <mxPoint x="200" y="690" />
              <mxPoint x="200" y="110" />
            </Array>
          </mxGeometry>
        </mxCell>
        <mxCell id="naxsbKN_Zz8DH2uQA-av-7" value="" style="endArrow=none;html=1;rounded=0;entryX=-0.054;entryY=0.08;entryDx=0;entryDy=0;entryPerimeter=0;edgeStyle=orthogonalEdgeStyle;" parent="1" edge="1">
          <mxGeometry width="50" height="50" relative="1" as="geometry">
            <mxPoint x="130" y="710" as="sourcePoint" />
            <mxPoint x="279.75" y="130" as="targetPoint" />
            <Array as="points">
              <mxPoint x="130" y="710" />
              <mxPoint x="210" y="710" />
              <mxPoint x="210" y="130" />
            </Array>
          </mxGeometry>
        </mxCell>
        <mxCell id="naxsbKN_Zz8DH2uQA-av-8" value="" style="endArrow=none;html=1;rounded=0;entryX=-0.054;entryY=0.08;entryDx=0;entryDy=0;entryPerimeter=0;edgeStyle=orthogonalEdgeStyle;" parent="1" edge="1">
          <mxGeometry width="50" height="50" relative="1" as="geometry">
            <mxPoint x="130" y="730" as="sourcePoint" />
            <mxPoint x="280" y="150" as="targetPoint" />
            <Array as="points">
              <mxPoint x="130" y="730" />
              <mxPoint x="220" y="730" />
              <mxPoint x="220" y="150" />
            </Array>
          </mxGeometry>
        </mxCell>
        <mxCell id="naxsbKN_Zz8DH2uQA-av-9" value="" style="endArrow=none;html=1;rounded=0;entryX=-0.054;entryY=0.08;entryDx=0;entryDy=0;entryPerimeter=0;edgeStyle=orthogonalEdgeStyle;" parent="1" edge="1">
          <mxGeometry width="50" height="50" relative="1" as="geometry">
            <mxPoint x="130" y="750" as="sourcePoint" />
            <mxPoint x="280" y="170" as="targetPoint" />
            <Array as="points">
              <mxPoint x="130" y="750" />
              <mxPoint x="230" y="750" />
              <mxPoint x="230" y="170" />
            </Array>
          </mxGeometry>
        </mxCell>
        <mxCell id="naxsbKN_Zz8DH2uQA-av-10" value="" style="endArrow=none;html=1;rounded=0;entryX=-0.054;entryY=0.08;entryDx=0;entryDy=0;entryPerimeter=0;edgeStyle=orthogonalEdgeStyle;" parent="1" edge="1">
          <mxGeometry width="50" height="50" relative="1" as="geometry">
            <mxPoint x="130" y="770" as="sourcePoint" />
            <mxPoint x="280" y="190" as="targetPoint" />
            <Array as="points">
              <mxPoint x="130" y="770" />
              <mxPoint x="240" y="770" />
              <mxPoint x="240" y="190" />
            </Array>
          </mxGeometry>
        </mxCell>
        <mxCell id="naxsbKN_Zz8DH2uQA-av-11" value="" style="ellipse;whiteSpace=wrap;html=1;aspect=fixed;fontSize=12;fontColor=#000000;" parent="1" vertex="1">
          <mxGeometry x="316" y="117.25" width="5.5" height="5.5" as="geometry" />
        </mxCell>
        <mxCell id="naxsbKN_Zz8DH2uQA-av-12" value="L0" style="text;html=1;align=center;verticalAlign=middle;resizable=0;points=[];autosize=1;strokeColor=none;fillColor=none;fontSize=11;fontFamily=Helvetica;fontColor=default;spacing=0;" parent="1" vertex="1">
          <mxGeometry x="810" y="97.25" width="30" height="20" as="geometry" />
        </mxCell>
        <mxCell id="naxsbKN_Zz8DH2uQA-av-13" value="" style="endArrow=none;html=1;rounded=0;exitX=1;exitY=0.5;exitDx=0;exitDy=0;" parent="1" source="naxsbKN_Zz8DH2uQA-av-11" edge="1">
          <mxGeometry width="50" height="50" relative="1" as="geometry">
            <mxPoint x="420" y="150" as="sourcePoint" />
            <mxPoint x="840" y="120" as="targetPoint" />
          </mxGeometry>
        </mxCell>
        <mxCell id="naxsbKN_Zz8DH2uQA-av-14" value="&lt;font style=&quot;font-size: 10px&quot;&gt;&amp;amp;&lt;/font&gt;" style="rounded=0;whiteSpace=wrap;html=1;fontSize=10;" parent="1" vertex="1">
          <mxGeometry x="280" y="220" width="39" height="50" as="geometry" />
        </mxCell>
        <mxCell id="naxsbKN_Zz8DH2uQA-av-15" style="edgeStyle=orthogonalEdgeStyle;rounded=0;orthogonalLoop=1;jettySize=auto;html=1;exitX=1;exitY=0.5;exitDx=0;exitDy=0;entryX=0;entryY=0.25;entryDx=0;entryDy=0;endArrow=none;endFill=0;" parent="1" source="naxsbKN_Zz8DH2uQA-av-14" target="naxsbKN_Zz8DH2uQA-av-63" edge="1">
          <mxGeometry relative="1" as="geometry">
            <Array as="points">
              <mxPoint x="330" y="245" />
              <mxPoint x="330" y="333" />
            </Array>
            <mxPoint x="321.4999999999964" y="244.75" as="sourcePoint" />
          </mxGeometry>
        </mxCell>
        <mxCell id="naxsbKN_Zz8DH2uQA-av-17" style="edgeStyle=orthogonalEdgeStyle;rounded=0;orthogonalLoop=1;jettySize=auto;html=1;exitX=1;exitY=0.5;exitDx=0;exitDy=0;entryX=0;entryY=0.25;entryDx=0;entryDy=0;endArrow=none;endFill=0;" parent="1" source="naxsbKN_Zz8DH2uQA-av-18" target="naxsbKN_Zz8DH2uQA-av-51" edge="1">
          <mxGeometry relative="1" as="geometry" />
        </mxCell>
        <mxCell id="naxsbKN_Zz8DH2uQA-av-18" value="&lt;font style=&quot;font-size: 10px&quot;&gt;=1&lt;/font&gt;" style="rounded=0;whiteSpace=wrap;html=1;fontSize=10;" parent="1" vertex="1">
          <mxGeometry x="280" y="290" width="39" height="50" as="geometry" />
        </mxCell>
        <mxCell id="naxsbKN_Zz8DH2uQA-av-19" value="&lt;font style=&quot;font-size: 10px&quot;&gt;&amp;amp;&lt;/font&gt;" style="rounded=0;whiteSpace=wrap;html=1;fontSize=10;" parent="1" vertex="1">
          <mxGeometry x="280" y="360" width="39" height="50" as="geometry" />
        </mxCell>
        <mxCell id="naxsbKN_Zz8DH2uQA-av-20" style="edgeStyle=orthogonalEdgeStyle;rounded=0;orthogonalLoop=1;jettySize=auto;html=1;exitX=1;exitY=0.5;exitDx=0;exitDy=0;entryX=0;entryY=0.5;entryDx=0;entryDy=0;endArrow=none;endFill=0;" parent="1" source="naxsbKN_Zz8DH2uQA-av-19" target="naxsbKN_Zz8DH2uQA-av-63" edge="1">
          <mxGeometry relative="1" as="geometry">
            <Array as="points">
              <mxPoint x="340" y="385" />
              <mxPoint x="340" y="345" />
            </Array>
            <mxPoint x="321.4999999999964" y="384.75" as="sourcePoint" />
          </mxGeometry>
        </mxCell>
        <mxCell id="naxsbKN_Zz8DH2uQA-av-22" style="edgeStyle=orthogonalEdgeStyle;rounded=0;orthogonalLoop=1;jettySize=auto;html=1;exitX=1;exitY=0.5;exitDx=0;exitDy=0;entryX=0;entryY=0.75;entryDx=0;entryDy=0;endArrow=none;endFill=0;" parent="1" source="naxsbKN_Zz8DH2uQA-av-23" target="naxsbKN_Zz8DH2uQA-av-51" edge="1">
          <mxGeometry relative="1" as="geometry" />
        </mxCell>
        <mxCell id="naxsbKN_Zz8DH2uQA-av-23" value="&lt;font style=&quot;font-size: 10px&quot;&gt;=1&lt;/font&gt;" style="rounded=0;whiteSpace=wrap;html=1;fontSize=10;" parent="1" vertex="1">
          <mxGeometry x="280" y="430" width="39" height="50" as="geometry" />
        </mxCell>
        <mxCell id="naxsbKN_Zz8DH2uQA-av-24" value="&lt;font style=&quot;font-size: 10px&quot;&gt;&amp;amp;&lt;/font&gt;" style="rounded=0;whiteSpace=wrap;html=1;fontSize=10;" parent="1" vertex="1">
          <mxGeometry x="280" y="500" width="39" height="50" as="geometry" />
        </mxCell>
        <mxCell id="naxsbKN_Zz8DH2uQA-av-25" style="edgeStyle=orthogonalEdgeStyle;rounded=0;orthogonalLoop=1;jettySize=auto;html=1;exitX=1;exitY=0.5;exitDx=0;exitDy=0;entryX=0;entryY=0.25;entryDx=0;entryDy=0;endArrow=none;endFill=0;" parent="1" source="naxsbKN_Zz8DH2uQA-av-24" target="naxsbKN_Zz8DH2uQA-av-65" edge="1">
          <mxGeometry relative="1" as="geometry">
            <Array as="points">
              <mxPoint x="330" y="525" />
              <mxPoint x="330" y="603" />
            </Array>
            <mxPoint x="321.4999999999964" y="524.75" as="sourcePoint" />
          </mxGeometry>
        </mxCell>
        <mxCell id="naxsbKN_Zz8DH2uQA-av-27" style="edgeStyle=orthogonalEdgeStyle;rounded=0;orthogonalLoop=1;jettySize=auto;html=1;exitX=1;exitY=0.5;exitDx=0;exitDy=0;entryX=0;entryY=0.25;entryDx=0;entryDy=0;endArrow=none;endFill=0;" parent="1" source="naxsbKN_Zz8DH2uQA-av-28" target="naxsbKN_Zz8DH2uQA-av-53" edge="1">
          <mxGeometry relative="1" as="geometry" />
        </mxCell>
        <mxCell id="naxsbKN_Zz8DH2uQA-av-28" value="&lt;font style=&quot;font-size: 10px&quot;&gt;=1&lt;/font&gt;" style="rounded=0;whiteSpace=wrap;html=1;fontSize=10;" parent="1" vertex="1">
          <mxGeometry x="280" y="570" width="39" height="50" as="geometry" />
        </mxCell>
        <mxCell id="naxsbKN_Zz8DH2uQA-av-29" value="&lt;font style=&quot;font-size: 10px&quot;&gt;&amp;amp;&lt;/font&gt;" style="rounded=0;whiteSpace=wrap;html=1;fontSize=10;" parent="1" vertex="1">
          <mxGeometry x="280" y="640" width="39" height="50" as="geometry" />
        </mxCell>
        <mxCell id="naxsbKN_Zz8DH2uQA-av-30" style="edgeStyle=orthogonalEdgeStyle;rounded=0;orthogonalLoop=1;jettySize=auto;html=1;exitX=1;exitY=0.5;exitDx=0;exitDy=0;entryX=0;entryY=0.5;entryDx=0;entryDy=0;endArrow=none;endFill=0;" parent="1" source="naxsbKN_Zz8DH2uQA-av-29" target="naxsbKN_Zz8DH2uQA-av-65" edge="1">
          <mxGeometry relative="1" as="geometry">
            <Array as="points">
              <mxPoint x="340" y="665" />
              <mxPoint x="340" y="615" />
            </Array>
            <mxPoint x="321.4999999999602" y="664.75" as="sourcePoint" />
          </mxGeometry>
        </mxCell>
        <mxCell id="naxsbKN_Zz8DH2uQA-av-32" style="edgeStyle=orthogonalEdgeStyle;rounded=0;orthogonalLoop=1;jettySize=auto;html=1;exitX=1;exitY=0.5;exitDx=0;exitDy=0;entryX=0;entryY=0.75;entryDx=0;entryDy=0;endArrow=none;endFill=0;" parent="1" source="naxsbKN_Zz8DH2uQA-av-33" target="naxsbKN_Zz8DH2uQA-av-53" edge="1">
          <mxGeometry relative="1" as="geometry" />
        </mxCell>
        <mxCell id="naxsbKN_Zz8DH2uQA-av-33" value="&lt;font style=&quot;font-size: 10px&quot;&gt;=1&lt;/font&gt;" style="rounded=0;whiteSpace=wrap;html=1;fontSize=10;" parent="1" vertex="1">
          <mxGeometry x="280" y="710" width="39" height="50" as="geometry" />
        </mxCell>
        <mxCell id="naxsbKN_Zz8DH2uQA-av-34" value="" style="endArrow=none;html=1;rounded=0;entryX=0;entryY=0.25;entryDx=0;entryDy=0;endFill=0;startArrow=oval;startFill=1;startSize=4;" parent="1" target="naxsbKN_Zz8DH2uQA-av-14" edge="1">
          <mxGeometry width="50" height="50" relative="1" as="geometry">
            <mxPoint x="170" y="233" as="sourcePoint" />
            <mxPoint x="410" y="200" as="targetPoint" />
          </mxGeometry>
        </mxCell>
        <mxCell id="naxsbKN_Zz8DH2uQA-av-35" value="" style="endArrow=none;html=1;rounded=0;entryX=0;entryY=0.75;entryDx=0;entryDy=0;endFill=0;startArrow=oval;startFill=1;startSize=4;" parent="1" target="naxsbKN_Zz8DH2uQA-av-14" edge="1">
          <mxGeometry width="50" height="50" relative="1" as="geometry">
            <mxPoint x="180" y="258" as="sourcePoint" />
            <mxPoint x="270" y="260" as="targetPoint" />
          </mxGeometry>
        </mxCell>
        <mxCell id="naxsbKN_Zz8DH2uQA-av-36" value="" style="endArrow=none;html=1;rounded=0;entryX=0;entryY=0.25;entryDx=0;entryDy=0;endFill=0;startArrow=oval;startFill=1;startSize=4;" parent="1" edge="1">
          <mxGeometry width="50" height="50" relative="1" as="geometry">
            <mxPoint x="170" y="303" as="sourcePoint" />
            <mxPoint x="280" y="303" as="targetPoint" />
          </mxGeometry>
        </mxCell>
        <mxCell id="naxsbKN_Zz8DH2uQA-av-37" value="" style="endArrow=none;html=1;rounded=0;entryX=0;entryY=0.75;entryDx=0;entryDy=0;endFill=0;startArrow=oval;startFill=1;startSize=4;" parent="1" edge="1">
          <mxGeometry width="50" height="50" relative="1" as="geometry">
            <mxPoint x="180" y="328" as="sourcePoint" />
            <mxPoint x="280" y="328" as="targetPoint" />
          </mxGeometry>
        </mxCell>
        <mxCell id="naxsbKN_Zz8DH2uQA-av-38" value="" style="endArrow=none;html=1;rounded=0;endFill=0;startArrow=oval;startFill=1;startSize=4;" parent="1" edge="1">
          <mxGeometry width="50" height="50" relative="1" as="geometry">
            <mxPoint x="190" y="373" as="sourcePoint" />
            <mxPoint x="280" y="373" as="targetPoint" />
          </mxGeometry>
        </mxCell>
        <mxCell id="naxsbKN_Zz8DH2uQA-av-39" value="" style="endArrow=none;html=1;rounded=0;endFill=0;startArrow=oval;startFill=1;startSize=4;" parent="1" edge="1">
          <mxGeometry width="50" height="50" relative="1" as="geometry">
            <mxPoint x="200" y="397" as="sourcePoint" />
            <mxPoint x="280" y="397.29" as="targetPoint" />
          </mxGeometry>
        </mxCell>
        <mxCell id="naxsbKN_Zz8DH2uQA-av-40" value="" style="endArrow=none;html=1;rounded=0;endFill=0;startArrow=oval;startFill=1;startSize=4;" parent="1" edge="1">
          <mxGeometry width="50" height="50" relative="1" as="geometry">
            <mxPoint x="190" y="442.7" as="sourcePoint" />
            <mxPoint x="280" y="442.7" as="targetPoint" />
          </mxGeometry>
        </mxCell>
        <mxCell id="naxsbKN_Zz8DH2uQA-av-41" value="" style="endArrow=none;html=1;rounded=0;endFill=0;startArrow=oval;startFill=1;startSize=4;" parent="1" edge="1">
          <mxGeometry width="50" height="50" relative="1" as="geometry">
            <mxPoint x="200" y="466.7" as="sourcePoint" />
            <mxPoint x="280" y="466.99" as="targetPoint" />
          </mxGeometry>
        </mxCell>
        <mxCell id="naxsbKN_Zz8DH2uQA-av-42" value="" style="endArrow=none;html=1;rounded=0;endFill=0;startArrow=oval;startFill=1;startSize=4;" parent="1" edge="1">
          <mxGeometry width="50" height="50" relative="1" as="geometry">
            <mxPoint x="210" y="513" as="sourcePoint" />
            <mxPoint x="280" y="513.29" as="targetPoint" />
          </mxGeometry>
        </mxCell>
        <mxCell id="naxsbKN_Zz8DH2uQA-av-43" value="" style="endArrow=none;html=1;rounded=0;endFill=0;startArrow=oval;startFill=1;startSize=4;" parent="1" edge="1">
          <mxGeometry width="50" height="50" relative="1" as="geometry">
            <mxPoint x="220" y="537" as="sourcePoint" />
            <mxPoint x="280" y="537.29" as="targetPoint" />
          </mxGeometry>
        </mxCell>
        <mxCell id="naxsbKN_Zz8DH2uQA-av-44" value="" style="endArrow=none;html=1;rounded=0;endFill=0;startArrow=oval;startFill=1;startSize=4;" parent="1" edge="1">
          <mxGeometry width="50" height="50" relative="1" as="geometry">
            <mxPoint x="210" y="583" as="sourcePoint" />
            <mxPoint x="280" y="583.29" as="targetPoint" />
          </mxGeometry>
        </mxCell>
        <mxCell id="naxsbKN_Zz8DH2uQA-av-45" value="" style="endArrow=none;html=1;rounded=0;endFill=0;startArrow=oval;startFill=1;startSize=4;" parent="1" edge="1">
          <mxGeometry width="50" height="50" relative="1" as="geometry">
            <mxPoint x="220" y="607" as="sourcePoint" />
            <mxPoint x="280" y="607.29" as="targetPoint" />
          </mxGeometry>
        </mxCell>
        <mxCell id="naxsbKN_Zz8DH2uQA-av-46" value="" style="endArrow=none;html=1;rounded=0;endFill=0;startArrow=oval;startFill=1;startSize=4;" parent="1" edge="1">
          <mxGeometry width="50" height="50" relative="1" as="geometry">
            <mxPoint x="230" y="653" as="sourcePoint" />
            <mxPoint x="280" y="652.78" as="targetPoint" />
          </mxGeometry>
        </mxCell>
        <mxCell id="naxsbKN_Zz8DH2uQA-av-47" value="" style="endArrow=none;html=1;rounded=0;endFill=0;startArrow=oval;startFill=1;startSize=4;" parent="1" edge="1">
          <mxGeometry width="50" height="50" relative="1" as="geometry">
            <mxPoint x="240" y="677" as="sourcePoint" />
            <mxPoint x="280" y="676.78" as="targetPoint" />
          </mxGeometry>
        </mxCell>
        <mxCell id="naxsbKN_Zz8DH2uQA-av-48" value="" style="endArrow=none;html=1;rounded=0;endFill=0;startArrow=oval;startFill=1;startSize=4;" parent="1" edge="1">
          <mxGeometry width="50" height="50" relative="1" as="geometry">
            <mxPoint x="230" y="723.01" as="sourcePoint" />
            <mxPoint x="280" y="722.79" as="targetPoint" />
          </mxGeometry>
        </mxCell>
        <mxCell id="naxsbKN_Zz8DH2uQA-av-49" value="" style="endArrow=none;html=1;rounded=0;endFill=0;startArrow=oval;startFill=1;startSize=4;" parent="1" edge="1">
          <mxGeometry width="50" height="50" relative="1" as="geometry">
            <mxPoint x="240" y="747.01" as="sourcePoint" />
            <mxPoint x="280" y="746.79" as="targetPoint" />
          </mxGeometry>
        </mxCell>
        <mxCell id="naxsbKN_Zz8DH2uQA-av-50" style="edgeStyle=orthogonalEdgeStyle;rounded=0;orthogonalLoop=1;jettySize=auto;html=1;exitX=1;exitY=0.5;exitDx=0;exitDy=0;entryX=0;entryY=0.75;entryDx=0;entryDy=0;endArrow=none;endFill=0;" parent="1" source="naxsbKN_Zz8DH2uQA-av-51" target="naxsbKN_Zz8DH2uQA-av-63" edge="1">
          <mxGeometry relative="1" as="geometry" />
        </mxCell>
        <mxCell id="naxsbKN_Zz8DH2uQA-av-51" value="&lt;font style=&quot;font-size: 10px&quot;&gt;&amp;amp;&lt;/font&gt;" style="rounded=0;whiteSpace=wrap;html=1;fontSize=10;" parent="1" vertex="1">
          <mxGeometry x="400" y="359.75" width="39" height="50" as="geometry" />
        </mxCell>
        <mxCell id="naxsbKN_Zz8DH2uQA-av-52" style="edgeStyle=orthogonalEdgeStyle;rounded=0;orthogonalLoop=1;jettySize=auto;html=1;exitX=1;exitY=0.5;exitDx=0;exitDy=0;entryX=0;entryY=0.75;entryDx=0;entryDy=0;endArrow=none;endFill=0;" parent="1" source="naxsbKN_Zz8DH2uQA-av-53" target="naxsbKN_Zz8DH2uQA-av-65" edge="1">
          <mxGeometry relative="1" as="geometry" />
        </mxCell>
        <mxCell id="naxsbKN_Zz8DH2uQA-av-53" value="&lt;font style=&quot;font-size: 10px&quot;&gt;&amp;amp;&lt;/font&gt;" style="rounded=0;whiteSpace=wrap;html=1;fontSize=10;" parent="1" vertex="1">
          <mxGeometry x="400" y="640" width="39" height="50" as="geometry" />
        </mxCell>
        <mxCell id="naxsbKN_Zz8DH2uQA-av-54" style="edgeStyle=orthogonalEdgeStyle;rounded=0;orthogonalLoop=1;jettySize=auto;html=1;exitX=0;exitY=0.25;exitDx=0;exitDy=0;endArrow=oval;endFill=1;startSize=4;endSize=4;" parent="1" source="naxsbKN_Zz8DH2uQA-av-56" edge="1">
          <mxGeometry relative="1" as="geometry">
            <mxPoint x="342.1971830985916" y="314.5915492957747" as="targetPoint" />
            <Array as="points">
              <mxPoint x="342" y="282" />
              <mxPoint x="342" y="315" />
            </Array>
          </mxGeometry>
        </mxCell>
        <mxCell id="naxsbKN_Zz8DH2uQA-av-55" style="edgeStyle=orthogonalEdgeStyle;rounded=0;orthogonalLoop=1;jettySize=auto;html=1;exitX=1;exitY=0.5;exitDx=0;exitDy=0;entryX=0;entryY=0.25;entryDx=0;entryDy=0;endArrow=none;endFill=0;" parent="1" source="naxsbKN_Zz8DH2uQA-av-56" target="naxsbKN_Zz8DH2uQA-av-67" edge="1">
          <mxGeometry relative="1" as="geometry">
            <Array as="points">
              <mxPoint x="450" y="295" />
              <mxPoint x="450" y="523" />
            </Array>
          </mxGeometry>
        </mxCell>
        <mxCell id="naxsbKN_Zz8DH2uQA-av-56" value="&lt;font style=&quot;font-size: 10px&quot;&gt;=1&lt;/font&gt;" style="rounded=0;whiteSpace=wrap;html=1;fontSize=10;" parent="1" vertex="1">
          <mxGeometry x="400" y="270" width="39" height="50" as="geometry" />
        </mxCell>
        <mxCell id="naxsbKN_Zz8DH2uQA-av-57" value="" style="endArrow=none;html=1;rounded=0;edgeStyle=orthogonalEdgeStyle;entryX=0;entryY=0.75;entryDx=0;entryDy=0;endFill=0;startArrow=oval;startFill=1;startSize=4;endSize=4;" parent="1" target="naxsbKN_Zz8DH2uQA-av-56" edge="1">
          <mxGeometry width="50" height="50" relative="1" as="geometry">
            <mxPoint x="376" y="397" as="sourcePoint" />
            <mxPoint x="391" y="323" as="targetPoint" />
            <Array as="points">
              <mxPoint x="376" y="307" />
              <mxPoint x="400" y="307" />
            </Array>
          </mxGeometry>
        </mxCell>
        <mxCell id="naxsbKN_Zz8DH2uQA-av-58" style="edgeStyle=orthogonalEdgeStyle;rounded=0;orthogonalLoop=1;jettySize=auto;html=1;exitX=0;exitY=0.75;exitDx=0;exitDy=0;endArrow=oval;endFill=1;startSize=4;endSize=4;" parent="1" source="naxsbKN_Zz8DH2uQA-av-61" edge="1">
          <mxGeometry relative="1" as="geometry">
            <mxPoint x="370" y="678" as="targetPoint" />
          </mxGeometry>
        </mxCell>
        <mxCell id="naxsbKN_Zz8DH2uQA-av-59" style="edgeStyle=orthogonalEdgeStyle;rounded=0;orthogonalLoop=1;jettySize=auto;html=1;exitX=0;exitY=0.25;exitDx=0;exitDy=0;endArrow=oval;endFill=1;startSize=4;endSize=4;" parent="1" source="naxsbKN_Zz8DH2uQA-av-61" edge="1">
          <mxGeometry relative="1" as="geometry">
            <mxPoint x="350" y="595" as="targetPoint" />
            <Array as="points">
              <mxPoint x="350" y="553" />
            </Array>
          </mxGeometry>
        </mxCell>
        <mxCell id="naxsbKN_Zz8DH2uQA-av-60" style="edgeStyle=orthogonalEdgeStyle;rounded=0;orthogonalLoop=1;jettySize=auto;html=1;exitX=1;exitY=0.5;exitDx=0;exitDy=0;entryX=0;entryY=0.75;entryDx=0;entryDy=0;endArrow=none;endFill=0;" parent="1" source="naxsbKN_Zz8DH2uQA-av-61" target="naxsbKN_Zz8DH2uQA-av-67" edge="1">
          <mxGeometry relative="1" as="geometry" />
        </mxCell>
        <mxCell id="naxsbKN_Zz8DH2uQA-av-61" value="&lt;font style=&quot;font-size: 10px&quot;&gt;=1&lt;/font&gt;" style="rounded=0;whiteSpace=wrap;html=1;fontSize=10;" parent="1" vertex="1">
          <mxGeometry x="400" y="540" width="39" height="50" as="geometry" />
        </mxCell>
        <mxCell id="naxsbKN_Zz8DH2uQA-av-62" style="edgeStyle=orthogonalEdgeStyle;rounded=0;orthogonalLoop=1;jettySize=auto;html=1;exitX=1;exitY=0.5;exitDx=0;exitDy=0;entryX=0;entryY=0.25;entryDx=0;entryDy=0;endArrow=none;endFill=0;" parent="1" source="naxsbKN_Zz8DH2uQA-av-63" target="naxsbKN_Zz8DH2uQA-av-72" edge="1">
          <mxGeometry relative="1" as="geometry" />
        </mxCell>
        <mxCell id="naxsbKN_Zz8DH2uQA-av-63" value="&lt;font style=&quot;font-size: 10px&quot;&gt;1&lt;/font&gt;" style="rounded=0;whiteSpace=wrap;html=1;fontSize=10;" parent="1" vertex="1">
          <mxGeometry x="490" y="320" width="39" height="50" as="geometry" />
        </mxCell>
        <mxCell id="naxsbKN_Zz8DH2uQA-av-64" style="edgeStyle=orthogonalEdgeStyle;rounded=0;orthogonalLoop=1;jettySize=auto;html=1;exitX=1;exitY=0.5;exitDx=0;exitDy=0;entryX=0;entryY=0.75;entryDx=0;entryDy=0;endArrow=none;endFill=0;" parent="1" source="naxsbKN_Zz8DH2uQA-av-65" target="naxsbKN_Zz8DH2uQA-av-72" edge="1">
          <mxGeometry relative="1" as="geometry" />
        </mxCell>
        <mxCell id="naxsbKN_Zz8DH2uQA-av-65" value="&lt;font style=&quot;font-size: 10px&quot;&gt;1&lt;/font&gt;" style="rounded=0;whiteSpace=wrap;html=1;fontSize=10;" parent="1" vertex="1">
          <mxGeometry x="480" y="590" width="39" height="50" as="geometry" />
        </mxCell>
        <mxCell id="naxsbKN_Zz8DH2uQA-av-66" style="edgeStyle=orthogonalEdgeStyle;rounded=0;orthogonalLoop=1;jettySize=auto;html=1;exitX=1;exitY=0.5;exitDx=0;exitDy=0;entryX=0;entryY=0.5;entryDx=0;entryDy=0;endArrow=none;endFill=0;" parent="1" source="naxsbKN_Zz8DH2uQA-av-67" target="naxsbKN_Zz8DH2uQA-av-72" edge="1">
          <mxGeometry relative="1" as="geometry" />
        </mxCell>
        <mxCell id="naxsbKN_Zz8DH2uQA-av-67" value="&lt;font style=&quot;font-size: 10px&quot;&gt;&amp;amp;&lt;/font&gt;" style="rounded=0;whiteSpace=wrap;html=1;fontSize=10;" parent="1" vertex="1">
          <mxGeometry x="481" y="510" width="39" height="50" as="geometry" />
        </mxCell>
        <mxCell id="naxsbKN_Zz8DH2uQA-av-68" style="edgeStyle=orthogonalEdgeStyle;rounded=0;orthogonalLoop=1;jettySize=auto;html=1;exitX=0;exitY=0.75;exitDx=0;exitDy=0;endArrow=oval;endFill=1;startSize=4;endSize=4;" parent="1" source="naxsbKN_Zz8DH2uQA-av-70" edge="1">
          <mxGeometry relative="1" as="geometry">
            <mxPoint x="470" y="548" as="targetPoint" />
            <Array as="points">
              <mxPoint x="470" y="451" />
            </Array>
          </mxGeometry>
        </mxCell>
        <mxCell id="naxsbKN_Zz8DH2uQA-av-69" style="edgeStyle=orthogonalEdgeStyle;rounded=0;orthogonalLoop=1;jettySize=auto;html=1;exitX=1;exitY=0.5;exitDx=0;exitDy=0;entryX=0;entryY=0.25;entryDx=0;entryDy=0;endArrow=none;endFill=0;" parent="1" source="naxsbKN_Zz8DH2uQA-av-70" target="naxsbKN_Zz8DH2uQA-av-76" edge="1">
          <mxGeometry relative="1" as="geometry" />
        </mxCell>
        <mxCell id="naxsbKN_Zz8DH2uQA-av-70" value="&lt;font style=&quot;font-size: 10px&quot;&gt;=1&lt;/font&gt;" style="rounded=0;whiteSpace=wrap;html=1;fontSize=10;" parent="1" vertex="1">
          <mxGeometry x="481" y="414" width="39" height="50" as="geometry" />
        </mxCell>
        <mxCell id="naxsbKN_Zz8DH2uQA-av-71" value="" style="endArrow=none;html=1;rounded=0;entryX=0;entryY=0.25;entryDx=0;entryDy=0;endFill=0;startArrow=oval;startFill=1;startSize=4;endSize=5;" parent="1" target="naxsbKN_Zz8DH2uQA-av-70" edge="1">
          <mxGeometry width="50" height="50" relative="1" as="geometry">
            <mxPoint x="450" y="427" as="sourcePoint" />
            <mxPoint x="520" y="420" as="targetPoint" />
          </mxGeometry>
        </mxCell>
        <mxCell id="naxsbKN_Zz8DH2uQA-av-72" value="&lt;font style=&quot;font-size: 10px&quot;&gt;1&lt;/font&gt;" style="rounded=0;whiteSpace=wrap;html=1;fontSize=10;" parent="1" vertex="1">
          <mxGeometry x="600" y="520" width="39" height="50" as="geometry" />
        </mxCell>
        <mxCell id="naxsbKN_Zz8DH2uQA-av-73" style="edgeStyle=orthogonalEdgeStyle;rounded=0;orthogonalLoop=1;jettySize=auto;html=1;exitX=1;exitY=0.5;exitDx=0;exitDy=0;entryX=0;entryY=0.75;entryDx=0;entryDy=0;endArrow=none;endFill=0;" parent="1" source="naxsbKN_Zz8DH2uQA-av-74" target="naxsbKN_Zz8DH2uQA-av-76" edge="1">
          <mxGeometry relative="1" as="geometry">
            <Array as="points">
              <mxPoint x="660" y="545" />
              <mxPoint x="660" y="464" />
              <mxPoint x="680" y="464" />
            </Array>
          </mxGeometry>
        </mxCell>
        <mxCell id="naxsbKN_Zz8DH2uQA-av-74" value="" style="ellipse;whiteSpace=wrap;html=1;aspect=fixed;fontSize=12;fontColor=#000000;" parent="1" vertex="1">
          <mxGeometry x="636" y="542" width="5.5" height="5.5" as="geometry" />
        </mxCell>
        <mxCell id="naxsbKN_Zz8DH2uQA-av-75" style="edgeStyle=orthogonalEdgeStyle;rounded=0;orthogonalLoop=1;jettySize=auto;html=1;exitX=1;exitY=0.5;exitDx=0;exitDy=0;endArrow=none;endFill=0;" parent="1" source="naxsbKN_Zz8DH2uQA-av-76" edge="1">
          <mxGeometry relative="1" as="geometry">
            <mxPoint x="840" y="452" as="targetPoint" />
          </mxGeometry>
        </mxCell>
        <mxCell id="naxsbKN_Zz8DH2uQA-av-76" value="&lt;font style=&quot;font-size: 10px&quot;&gt;&amp;amp;&lt;/font&gt;" style="rounded=0;whiteSpace=wrap;html=1;fontSize=10;" parent="1" vertex="1">
          <mxGeometry x="680" y="427" width="39" height="50" as="geometry" />
        </mxCell>
        <mxCell id="naxsbKN_Zz8DH2uQA-av-77" value="L1" style="text;html=1;align=center;verticalAlign=middle;resizable=0;points=[];autosize=1;strokeColor=none;fillColor=none;fontSize=11;fontFamily=Helvetica;fontColor=default;spacing=0;" parent="1" vertex="1">
          <mxGeometry x="810" y="427" width="30" height="20" as="geometry" />
        </mxCell>
        <mxCell id="naxsbKN_Zz8DH2uQA-av-78" style="edgeStyle=orthogonalEdgeStyle;rounded=0;orthogonalLoop=1;jettySize=auto;html=1;exitX=0;exitY=0.75;exitDx=0;exitDy=0;endArrow=oval;endFill=1;startSize=4;endSize=4;" parent="1" source="naxsbKN_Zz8DH2uQA-av-79" edge="1">
          <mxGeometry relative="1" as="geometry">
            <mxPoint x="730" y="452" as="targetPoint" />
          </mxGeometry>
        </mxCell>
        <mxCell id="naxsbKN_Zz8DH2uQA-av-79" value="&lt;font style=&quot;font-size: 10px&quot;&gt;1&lt;/font&gt;" style="rounded=0;whiteSpace=wrap;html=1;fontSize=10;" parent="1" vertex="1">
          <mxGeometry x="758.5" y="527.5" width="39" height="50" as="geometry" />
        </mxCell>
        <mxCell id="naxsbKN_Zz8DH2uQA-av-80" style="edgeStyle=orthogonalEdgeStyle;rounded=0;orthogonalLoop=1;jettySize=auto;html=1;exitX=1;exitY=0.5;exitDx=0;exitDy=0;endArrow=none;endFill=0;" parent="1" source="naxsbKN_Zz8DH2uQA-av-81" edge="1">
          <mxGeometry relative="1" as="geometry">
            <mxPoint x="840" y="552.3333333333334" as="targetPoint" />
          </mxGeometry>
        </mxCell>
        <mxCell id="naxsbKN_Zz8DH2uQA-av-81" value="" style="ellipse;whiteSpace=wrap;html=1;aspect=fixed;fontSize=12;fontColor=#000000;" parent="1" vertex="1">
          <mxGeometry x="794.5" y="549.5" width="5.5" height="5.5" as="geometry" />
        </mxCell>
        <mxCell id="naxsbKN_Zz8DH2uQA-av-82" value="" style="endArrow=none;html=1;rounded=0;exitX=0;exitY=0.25;exitDx=0;exitDy=0;edgeStyle=orthogonalEdgeStyle;" parent="1" source="naxsbKN_Zz8DH2uQA-av-79" edge="1">
          <mxGeometry width="50" height="50" relative="1" as="geometry">
            <mxPoint x="720" y="240" as="sourcePoint" />
            <mxPoint x="749" y="120" as="targetPoint" />
            <Array as="points">
              <mxPoint x="749" y="540" />
              <mxPoint x="749" y="120" />
            </Array>
          </mxGeometry>
        </mxCell>
        <mxCell id="naxsbKN_Zz8DH2uQA-av-83" value="L2" style="text;html=1;align=center;verticalAlign=middle;resizable=0;points=[];autosize=1;strokeColor=none;fillColor=none;fontSize=11;fontFamily=Helvetica;fontColor=default;spacing=0;" parent="1" vertex="1">
          <mxGeometry x="810" y="530" width="30" height="20" as="geometry" />
        </mxCell>
        <mxCell id="naxsbKN_Zz8DH2uQA-av-84" value="RGSH[1] v d1" style="text;html=1;align=center;verticalAlign=middle;resizable=0;points=[];autosize=1;strokeColor=none;fillColor=none;fontSize=11;fontFamily=Helvetica;fontColor=default;spacing=0;" parent="1" vertex="1">
          <mxGeometry x="44.75" y="640" width="90" height="20" as="geometry" />
        </mxCell>
        <mxCell id="naxsbKN_Zz8DH2uQA-av-85" value="RGSH[2] v d2" style="text;html=1;align=center;verticalAlign=middle;resizable=0;points=[];autosize=1;strokeColor=none;fillColor=none;fontSize=11;fontFamily=Helvetica;fontColor=default;spacing=0;" parent="1" vertex="1">
          <mxGeometry x="44.75" y="660" width="90" height="20" as="geometry" />
        </mxCell>
        <mxCell id="naxsbKN_Zz8DH2uQA-av-86" value="RGSH[3] v d3" style="text;html=1;align=center;verticalAlign=middle;resizable=0;points=[];autosize=1;strokeColor=none;fillColor=none;fontSize=11;fontFamily=Helvetica;fontColor=default;spacing=0;" parent="1" vertex="1">
          <mxGeometry x="44.75" y="680" width="90" height="20" as="geometry" />
        </mxCell>
        <mxCell id="naxsbKN_Zz8DH2uQA-av-87" value="RGSH[4] v d4" style="text;html=1;align=center;verticalAlign=middle;resizable=0;points=[];autosize=1;strokeColor=none;fillColor=none;fontSize=11;fontFamily=Helvetica;fontColor=default;spacing=0;" parent="1" vertex="1">
          <mxGeometry x="44.75" y="700" width="90" height="20" as="geometry" />
        </mxCell>
        <mxCell id="naxsbKN_Zz8DH2uQA-av-88" value="RGSH[5] v d5" style="text;html=1;align=center;verticalAlign=middle;resizable=0;points=[];autosize=1;strokeColor=none;fillColor=none;fontSize=11;fontFamily=Helvetica;fontColor=default;spacing=0;" parent="1" vertex="1">
          <mxGeometry x="44.75" y="720" width="90" height="20" as="geometry" />
        </mxCell>
        <mxCell id="naxsbKN_Zz8DH2uQA-av-89" value="RGSH[6] v d6" style="text;html=1;align=center;verticalAlign=middle;resizable=0;points=[];autosize=1;strokeColor=none;fillColor=none;fontSize=11;fontFamily=Helvetica;fontColor=default;spacing=0;" parent="1" vertex="1">
          <mxGeometry x="44.75" y="740" width="90" height="20" as="geometry" />
        </mxCell>
        <mxCell id="naxsbKN_Zz8DH2uQA-av-90" value="RGSH[7] v d7" style="text;html=1;align=center;verticalAlign=middle;resizable=0;points=[];autosize=1;strokeColor=none;fillColor=none;fontSize=11;fontFamily=Helvetica;fontColor=default;spacing=0;" parent="1" vertex="1">
          <mxGeometry x="44.75" y="760" width="90" height="20" as="geometry" />
        </mxCell>
      </root>
    </mxGraphModel>
  </diagram>
  <diagram id="3RdVIioZ933WfUty3EvS" name="GSA WR">
    <mxGraphModel dx="265" dy="-31" grid="1" gridSize="10" guides="1" tooltips="1" connect="1" arrows="1" fold="1" page="1" pageScale="1" pageWidth="1169" pageHeight="827" math="0" shadow="0">
      <root>
        <mxCell id="0" />
        <mxCell id="1" parent="0" />
        <mxCell id="AqMtRKEugbAkB3xuzoeB-2" value="" style="edgeStyle=orthogonalEdgeStyle;rounded=0;orthogonalLoop=1;jettySize=auto;html=1;" parent="1" source="AqMtRKEugbAkB3xuzoeB-3" target="AqMtRKEugbAkB3xuzoeB-5" edge="1">
          <mxGeometry relative="1" as="geometry" />
        </mxCell>
        <mxCell id="AqMtRKEugbAkB3xuzoeB-3" value="Начало&lt;br&gt;WRITE" style="rounded=1;whiteSpace=wrap;html=1;arcSize=50;fillColor=default;" parent="1" vertex="1">
          <mxGeometry x="1360" y="960" width="160" height="40" as="geometry" />
        </mxCell>
        <mxCell id="AqMtRKEugbAkB3xuzoeB-4" value="" style="edgeStyle=orthogonalEdgeStyle;rounded=0;orthogonalLoop=1;jettySize=auto;html=1;" parent="1" source="AqMtRKEugbAkB3xuzoeB-5" target="AqMtRKEugbAkB3xuzoeB-8" edge="1">
          <mxGeometry relative="1" as="geometry" />
        </mxCell>
        <mxCell id="AqMtRKEugbAkB3xuzoeB-5" value="RgI[15..0] := MD[15..0]&lt;br&gt;RgA[7..0] := MA[7..0]" style="rounded=0;whiteSpace=wrap;html=1;" parent="1" vertex="1">
          <mxGeometry x="1360" y="1040" width="160" height="50" as="geometry" />
        </mxCell>
        <mxCell id="AqMtRKEugbAkB3xuzoeB-6" value="CI" style="text;html=1;align=center;verticalAlign=middle;resizable=0;points=[];autosize=1;strokeColor=none;fillColor=none;" parent="1" vertex="1">
          <mxGeometry x="1520" y="1040" width="40" height="30" as="geometry" />
        </mxCell>
        <mxCell id="AqMtRKEugbAkB3xuzoeB-7" value="" style="edgeStyle=orthogonalEdgeStyle;rounded=0;orthogonalLoop=1;jettySize=auto;html=1;" parent="1" source="AqMtRKEugbAkB3xuzoeB-8" target="AqMtRKEugbAkB3xuzoeB-11" edge="1">
          <mxGeometry relative="1" as="geometry" />
        </mxCell>
        <mxCell id="AqMtRKEugbAkB3xuzoeB-8" value="AZU[RgA][15..0] := RgI[15..0]" style="rounded=0;whiteSpace=wrap;html=1;" parent="1" vertex="1">
          <mxGeometry x="1360" y="1112" width="160" height="50" as="geometry" />
        </mxCell>
        <mxCell id="AqMtRKEugbAkB3xuzoeB-9" value="~WR" style="text;html=1;align=center;verticalAlign=middle;resizable=0;points=[];autosize=1;strokeColor=none;fillColor=none;" parent="1" vertex="1">
          <mxGeometry x="1515" y="1122" width="50" height="30" as="geometry" />
        </mxCell>
        <mxCell id="AqMtRKEugbAkB3xuzoeB-11" value="Конец&lt;br&gt;WRITE" style="rounded=1;whiteSpace=wrap;html=1;arcSize=50;fillColor=default;" parent="1" vertex="1">
          <mxGeometry x="1360" y="1190" width="160" height="40" as="geometry" />
        </mxCell>
        <mxCell id="AqMtRKEugbAkB3xuzoeB-12" value="CA" style="text;html=1;align=center;verticalAlign=middle;resizable=0;points=[];autosize=1;strokeColor=none;fillColor=none;" parent="1" vertex="1">
          <mxGeometry x="1520" y="1060" width="40" height="30" as="geometry" />
        </mxCell>
      </root>
    </mxGraphModel>
  </diagram>
  <diagram id="L4BxiMxf-rmxY6oAyPAB" name="GSA RD">
    <mxGraphModel dx="-350" dy="-372" grid="1" gridSize="10" guides="1" tooltips="1" connect="1" arrows="1" fold="1" page="1" pageScale="1" pageWidth="1169" pageHeight="827" math="0" shadow="0">
      <root>
        <mxCell id="0" />
        <mxCell id="1" parent="0" />
        <mxCell id="-FXsrfwB_nX1nzHzJNjM-1" value="" style="edgeStyle=orthogonalEdgeStyle;rounded=0;orthogonalLoop=1;jettySize=auto;html=1;" parent="1" source="-FXsrfwB_nX1nzHzJNjM-2" target="-FXsrfwB_nX1nzHzJNjM-4" edge="1">
          <mxGeometry relative="1" as="geometry" />
        </mxCell>
        <mxCell id="-FXsrfwB_nX1nzHzJNjM-2" value="Начало&lt;br&gt;READ" style="rounded=1;whiteSpace=wrap;html=1;arcSize=50;fillColor=default;" parent="1" vertex="1">
          <mxGeometry x="1360" y="960" width="160" height="40" as="geometry" />
        </mxCell>
        <mxCell id="-FXsrfwB_nX1nzHzJNjM-3" value="" style="edgeStyle=orthogonalEdgeStyle;rounded=0;orthogonalLoop=1;jettySize=auto;html=1;" parent="1" source="-FXsrfwB_nX1nzHzJNjM-4" target="-FXsrfwB_nX1nzHzJNjM-7" edge="1">
          <mxGeometry relative="1" as="geometry" />
        </mxCell>
        <mxCell id="-FXsrfwB_nX1nzHzJNjM-4" value="RgM[15..0] := MD[15..0]" style="rounded=0;whiteSpace=wrap;html=1;" parent="1" vertex="1">
          <mxGeometry x="1360" y="1040" width="160" height="50" as="geometry" />
        </mxCell>
        <mxCell id="-FXsrfwB_nX1nzHzJNjM-5" value="CM" style="text;html=1;align=center;verticalAlign=middle;resizable=0;points=[];autosize=1;strokeColor=none;fillColor=none;" parent="1" vertex="1">
          <mxGeometry x="1520" y="1050" width="40" height="30" as="geometry" />
        </mxCell>
        <mxCell id="-FXsrfwB_nX1nzHzJNjM-13" value="" style="edgeStyle=orthogonalEdgeStyle;rounded=0;orthogonalLoop=1;jettySize=auto;html=1;" parent="1" source="-FXsrfwB_nX1nzHzJNjM-7" target="-FXsrfwB_nX1nzHzJNjM-12" edge="1">
          <mxGeometry relative="1" as="geometry" />
        </mxCell>
        <mxCell id="-FXsrfwB_nX1nzHzJNjM-7" value="RgI[15..0] := MD[15..0]" style="rounded=0;whiteSpace=wrap;html=1;" parent="1" vertex="1">
          <mxGeometry x="1360" y="1112" width="160" height="50" as="geometry" />
        </mxCell>
        <mxCell id="-FXsrfwB_nX1nzHzJNjM-8" value="CI" style="text;html=1;align=center;verticalAlign=middle;resizable=0;points=[];autosize=1;strokeColor=none;fillColor=none;" parent="1" vertex="1">
          <mxGeometry x="1520" y="1122" width="40" height="30" as="geometry" />
        </mxCell>
        <mxCell id="-FXsrfwB_nX1nzHzJNjM-9" value="Конец&lt;br&gt;READ" style="rounded=1;whiteSpace=wrap;html=1;arcSize=50;fillColor=default;" parent="1" vertex="1">
          <mxGeometry x="1360" y="1440" width="160" height="40" as="geometry" />
        </mxCell>
        <mxCell id="-FXsrfwB_nX1nzHzJNjM-14" style="edgeStyle=orthogonalEdgeStyle;rounded=0;orthogonalLoop=1;jettySize=auto;html=1;exitX=1;exitY=0.5;exitDx=0;exitDy=0;entryX=0.5;entryY=0;entryDx=0;entryDy=0;" parent="1" source="-FXsrfwB_nX1nzHzJNjM-12" target="-FXsrfwB_nX1nzHzJNjM-15" edge="1">
          <mxGeometry relative="1" as="geometry">
            <mxPoint x="1600" y="1215.2413793103449" as="targetPoint" />
          </mxGeometry>
        </mxCell>
        <mxCell id="-FXsrfwB_nX1nzHzJNjM-22" style="edgeStyle=orthogonalEdgeStyle;rounded=0;orthogonalLoop=1;jettySize=auto;html=1;entryX=0.5;entryY=0;entryDx=0;entryDy=0;" parent="1" source="-FXsrfwB_nX1nzHzJNjM-12" target="-FXsrfwB_nX1nzHzJNjM-9" edge="1">
          <mxGeometry relative="1" as="geometry" />
        </mxCell>
        <mxCell id="-FXsrfwB_nX1nzHzJNjM-12" value="L0" style="rhombus;whiteSpace=wrap;html=1;rounded=0;" parent="1" vertex="1">
          <mxGeometry x="1360" y="1190" width="160" height="50" as="geometry" />
        </mxCell>
        <mxCell id="-FXsrfwB_nX1nzHzJNjM-19" value="" style="edgeStyle=orthogonalEdgeStyle;rounded=0;orthogonalLoop=1;jettySize=auto;html=1;" parent="1" source="-FXsrfwB_nX1nzHzJNjM-15" target="-FXsrfwB_nX1nzHzJNjM-18" edge="1">
          <mxGeometry relative="1" as="geometry" />
        </mxCell>
        <mxCell id="-FXsrfwB_nX1nzHzJNjM-15" value="RgA[7..0] := CD(RgSH[7..0])" style="rounded=0;whiteSpace=wrap;html=1;" parent="1" vertex="1">
          <mxGeometry x="1480" y="1241" width="170" height="39" as="geometry" />
        </mxCell>
        <mxCell id="-FXsrfwB_nX1nzHzJNjM-16" value="0" style="text;html=1;align=center;verticalAlign=middle;resizable=0;points=[];autosize=1;strokeColor=none;fillColor=none;" parent="1" vertex="1">
          <mxGeometry x="1525" y="1188" width="30" height="30" as="geometry" />
        </mxCell>
        <mxCell id="-FXsrfwB_nX1nzHzJNjM-21" value="" style="edgeStyle=orthogonalEdgeStyle;rounded=0;orthogonalLoop=1;jettySize=auto;html=1;" parent="1" source="-FXsrfwB_nX1nzHzJNjM-18" target="-FXsrfwB_nX1nzHzJNjM-20" edge="1">
          <mxGeometry relative="1" as="geometry" />
        </mxCell>
        <mxCell id="-FXsrfwB_nX1nzHzJNjM-18" value="RgO[15..0] := AZU[RgA][15..0]" style="rounded=0;whiteSpace=wrap;html=1;" parent="1" vertex="1">
          <mxGeometry x="1480" y="1300" width="170" height="39" as="geometry" />
        </mxCell>
        <mxCell id="-FXsrfwB_nX1nzHzJNjM-23" style="edgeStyle=orthogonalEdgeStyle;rounded=0;orthogonalLoop=1;jettySize=auto;html=1;exitX=0.5;exitY=1;exitDx=0;exitDy=0;" parent="1" source="-FXsrfwB_nX1nzHzJNjM-20" edge="1">
          <mxGeometry relative="1" as="geometry">
            <mxPoint x="1440" y="1170" as="targetPoint" />
            <Array as="points">
              <mxPoint x="1565" y="1419" />
              <mxPoint x="1720" y="1419" />
              <mxPoint x="1720" y="1170" />
            </Array>
          </mxGeometry>
        </mxCell>
        <mxCell id="-FXsrfwB_nX1nzHzJNjM-20" value="MD[15..0] = RgO[15..0]&lt;br&gt;RgSH[RgA] := 0" style="rounded=0;whiteSpace=wrap;html=1;" parent="1" vertex="1">
          <mxGeometry x="1480" y="1360" width="170" height="39" as="geometry" />
        </mxCell>
        <mxCell id="dn2HCA2H94u8Gu5oVc1J-1" value="CA" style="text;html=1;align=center;verticalAlign=middle;resizable=0;points=[];autosize=1;strokeColor=none;fillColor=none;" vertex="1" parent="1">
          <mxGeometry x="1650" y="1245.5" width="40" height="30" as="geometry" />
        </mxCell>
        <mxCell id="dn2HCA2H94u8Gu5oVc1J-2" value="~RD" style="text;html=1;align=center;verticalAlign=middle;resizable=0;points=[];autosize=1;strokeColor=none;fillColor=none;" vertex="1" parent="1">
          <mxGeometry x="1645" y="1304.5" width="50" height="30" as="geometry" />
        </mxCell>
        <mxCell id="dn2HCA2H94u8Gu5oVc1J-3" value="~EO" style="text;html=1;align=center;verticalAlign=middle;resizable=0;points=[];autosize=1;strokeColor=none;fillColor=none;" vertex="1" parent="1">
          <mxGeometry x="1645" y="1364.5" width="50" height="30" as="geometry" />
        </mxCell>
      </root>
    </mxGraphModel>
  </diagram>
</mxfile>
